STARTFONT 2.1
COMMENT This font was automatically resized by bdfresize-1.5
COMMENT   mag_x = 2/1, mag_y = 2/1, blackness = 4
COMMENT Copyright (C) 1996-2002 Carsten Haitzler, Jonathan Perkin,
COMMENT Tom Gilbert and Simon Horman
COMMENT 
COMMENT Permission is hereby granted, free of charge, to any person obtaining
COMMENT a copy of this software and associated documentation files (the
COMMENT "Software"), to deal in the Software without restriction, including
COMMENT without limitation the rights to use, copy, modify, merge, publish,
COMMENT distribute, sublicense, and/or sell copies of the Software, and to
COMMENT permit persons to whom the Software is furnished to do so, subject to
COMMENT the following conditions:
COMMENT 
COMMENT The above copyright notice and this permission notice shall be
COMMENT included in all copies of the Software, its documentation and
COMMENT marketing & publicity materials, and acknowledgment shall be given in
COMMENT the documentation, materials and software packages that this Software
COMMENT was used.
COMMENT 
COMMENT THE SOFTWARE IS PROVIDED "AS IS", WITHOUT WARRANTY OF ANY KIND,
COMMENT EXPRESS OR IMPLIED, INCLUDING BUT NOT LIMITED TO THE WARRANTIES OF
COMMENT MERCHANTABILITY, FITNESS FOR A PARTICULAR PURPOSE AND NONINFRINGEMENT.
COMMENT IN NO EVENT SHALL THE AUTHORS BE LIABLE FOR ANY CLAIM, DAMAGES OR
COMMENT OTHER LIABILITY, WHETHER IN AN ACTION OF CONTRACT, TORT OR OTHERWISE,
COMMENT ARISING FROM, OUT OF OR IN CONNECTION WITH THE SOFTWARE OR THE USE OR
COMMENT OTHER DEALINGS IN THE SOFTWARE.
FONT -misc-nexus-medium-r-normal--20-200-75-75-c-120-iso8859-1
SIZE 20 75 75
FONTBOUNDINGBOX 10 20 0 -4
STARTPROPERTIES 25
CHARSET_REGISTRY "iso8859"
SLANT "r"
FAMILY_NAME "nexus"
POINT_SIZE 200
SPACING "c"
FOUNDRY "misc"
WEIGHT 10
WEIGHT_NAME "medium"
QUAD_WIDTH 5
RESOLUTION_X 75
RESOLUTION_Y 75
SETWIDTH_NAME "normal"
X_HEIGHT 8
CHARSET_ENCODING "1"
FONTNAME_REGISTRY ""
COPYRIGHT "BSD Licence: Copyright (C) 1996-2002 Carsten Haitzler, Jonathan Perkin, Tom Gilbert and Simon Horman"
ADD_STYLE_NAME ""
AVERAGE_WIDTH 120
PIXEL_SIZE 20
_XMBDFED_INFO "Edited with xmbdfed 4.5."
RESOLUTION 103
DEFAULT_CHAR 0
FONT_ASCENT 16
FONT_DESCENT 4
_ORIGINAL_FONT_NAME "NewNexus"
ENDPROPERTIES
CHARS 255
STARTCHAR C000
ENCODING 0
SWIDTH 960 0
DWIDTH 10 0
BBX 10 20 0 -4
BITMAP
0000
0000
3F00
3F00
3F00
3F00
3F00
3F00
3F00
3F00
3F00
3F00
3F00
3F00
3F00
3F00
3F00
3F00
0000
0000
ENDCHAR
STARTCHAR C001
ENCODING 1
SWIDTH 960 0
DWIDTH 10 0
BBX 10 20 0 -4
BITMAP
0000
0000
0000
0000
0000
0000
0000
0000
0C00
0C00
3F00
3F00
FFC0
FFC0
3F00
3F00
0C00
0C00
0000
0000
ENDCHAR
STARTCHAR C002
ENCODING 2
SWIDTH 960 0
DWIDTH 10 0
BBX 10 20 0 -4
BITMAP
CCC0
CCC0
3300
3300
CCC0
CCC0
3300
3300
CCC0
CCC0
3300
3300
CCC0
CCC0
3300
3300
CCC0
CCC0
3300
3300
ENDCHAR
STARTCHAR C003
ENCODING 3
SWIDTH 960 0
DWIDTH 10 0
BBX 10 20 0 -4
BITMAP
0000
0000
CC00
CC00
FC00
FC00
CC00
CC00
0000
0000
3F00
3F00
0C00
0C00
0C00
0C00
0000
0000
0000
0000
ENDCHAR
STARTCHAR C004
ENCODING 4
SWIDTH 960 0
DWIDTH 10 0
BBX 10 20 0 -4
BITMAP
0000
0000
0000
0000
0000
0000
FC00
FC00
C000
C000
F000
F000
CFC0
CFC0
0C00
0C00
0F00
0F00
0C00
0C00
ENDCHAR
STARTCHAR C005
ENCODING 5
SWIDTH 960 0
DWIDTH 10 0
BBX 10 20 0 -4
BITMAP
0000
0000
0000
0000
3C00
3C00
C000
C000
C000
C000
3C00
3C00
0FC0
0FC0
0CC0
0CC0
0F00
0F00
0CC0
0CC0
ENDCHAR
STARTCHAR C006
ENCODING 6
SWIDTH 960 0
DWIDTH 10 0
BBX 10 20 0 -4
BITMAP
0000
0000
0000
0000
C000
C000
C000
C000
C000
C000
FC00
FC00
0FC0
0FC0
0C00
0C00
0F00
0F00
0C00
0C00
ENDCHAR
STARTCHAR C007
ENCODING 7
SWIDTH 960 0
DWIDTH 10 0
BBX 10 20 0 -4
BITMAP
3C00
3C00
C300
C300
C300
C300
3C00
3C00
0000
0000
0000
0000
0000
0000
0000
0000
0000
0000
0000
0000
ENDCHAR
STARTCHAR C010
ENCODING 8
SWIDTH 960 0
DWIDTH 10 0
BBX 10 20 0 -4
BITMAP
0000
0000
0000
0000
0000
0000
0C00
0C00
3F00
3F00
0C00
0C00
0000
0000
3F00
3F00
0000
0000
0000
0000
ENDCHAR
STARTCHAR C011
ENCODING 9
SWIDTH 960 0
DWIDTH 10 0
BBX 10 20 0 -4
BITMAP
0000
0000
0000
0000
C300
C300
F300
F300
CF00
CF00
C300
C300
0C00
0C00
0C00
0C00
0C00
0C00
0FC0
0FC0
ENDCHAR
STARTCHAR C012
ENCODING 10
SWIDTH 960 0
DWIDTH 10 0
BBX 10 20 0 -4
BITMAP
0000
0000
0000
0000
CC00
CC00
CC00
CC00
3000
3000
3000
3000
0FC0
0FC0
0300
0300
0300
0300
0300
0300
ENDCHAR
STARTCHAR C013
ENCODING 11
SWIDTH 960 0
DWIDTH 10 0
BBX 10 20 0 -4
BITMAP
0C00
0C00
0C00
0C00
0C00
0C00
0C00
0C00
0C00
0C00
FC00
FC00
0000
0000
0000
0000
0000
0000
0000
0000
ENDCHAR
STARTCHAR C014
ENCODING 12
SWIDTH 960 0
DWIDTH 10 0
BBX 10 20 0 -4
BITMAP
0000
0000
0000
0000
0000
0000
0000
0000
0000
0000
FC00
FC00
0C00
0C00
0C00
0C00
0C00
0C00
0C00
0C00
ENDCHAR
STARTCHAR C015
ENCODING 13
SWIDTH 960 0
DWIDTH 10 0
BBX 10 20 0 -4
BITMAP
0000
0000
0000
0000
0000
0000
0000
0000
0000
0000
0FC0
0FC0
0C00
0C00
0C00
0C00
0C00
0C00
0C00
0C00
ENDCHAR
STARTCHAR C016
ENCODING 14
SWIDTH 960 0
DWIDTH 10 0
BBX 10 20 0 -4
BITMAP
0C00
0C00
0C00
0C00
0C00
0C00
0C00
0C00
0C00
0C00
0FC0
0FC0
0000
0000
0000
0000
0000
0000
0000
0000
ENDCHAR
STARTCHAR C017
ENCODING 15
SWIDTH 960 0
DWIDTH 10 0
BBX 10 20 0 -4
BITMAP
0C00
0C00
0C00
0C00
0C00
0C00
0C00
0C00
0C00
0C00
FFC0
FFC0
0C00
0C00
0C00
0C00
0C00
0C00
0C00
0C00
ENDCHAR
STARTCHAR C020
ENCODING 16
SWIDTH 960 0
DWIDTH 10 0
BBX 10 20 0 -4
BITMAP
0000
0000
FFC0
FFC0
0000
0000
0000
0000
0000
0000
0000
0000
0000
0000
0000
0000
0000
0000
0000
0000
ENDCHAR
STARTCHAR C021
ENCODING 17
SWIDTH 960 0
DWIDTH 10 0
BBX 10 20 0 -4
BITMAP
0000
0000
0000
0000
0000
0000
FFC0
FFC0
0000
0000
0000
0000
0000
0000
0000
0000
0000
0000
0000
0000
ENDCHAR
STARTCHAR C022
ENCODING 18
SWIDTH 960 0
DWIDTH 10 0
BBX 10 20 0 -4
BITMAP
0000
0000
0000
0000
0000
0000
0000
0000
0000
0000
FFC0
FFC0
0000
0000
0000
0000
0000
0000
0000
0000
ENDCHAR
STARTCHAR C023
ENCODING 19
SWIDTH 960 0
DWIDTH 10 0
BBX 10 20 0 -4
BITMAP
0000
0000
0000
0000
0000
0000
0000
0000
0000
0000
0000
0000
0000
0000
FFC0
FFC0
0000
0000
0000
0000
ENDCHAR
STARTCHAR C024
ENCODING 20
SWIDTH 960 0
DWIDTH 10 0
BBX 10 20 0 -4
BITMAP
0000
0000
0000
0000
0000
0000
0000
0000
0000
0000
0000
0000
0000
0000
0000
0000
0000
0000
FFC0
FFC0
ENDCHAR
STARTCHAR C025
ENCODING 21
SWIDTH 960 0
DWIDTH 10 0
BBX 10 20 0 -4
BITMAP
0C00
0C00
0C00
0C00
0C00
0C00
0C00
0C00
0C00
0C00
0FC0
0FC0
0C00
0C00
0C00
0C00
0C00
0C00
0C00
0C00
ENDCHAR
STARTCHAR C026
ENCODING 22
SWIDTH 960 0
DWIDTH 10 0
BBX 10 20 0 -4
BITMAP
0C00
0C00
0C00
0C00
0C00
0C00
0C00
0C00
0C00
0C00
FC00
FC00
0C00
0C00
0C00
0C00
0C00
0C00
0C00
0C00
ENDCHAR
STARTCHAR C027
ENCODING 23
SWIDTH 960 0
DWIDTH 10 0
BBX 10 20 0 -4
BITMAP
0C00
0C00
0C00
0C00
0C00
0C00
0C00
0C00
0C00
0C00
FFC0
FFC0
0000
0000
0000
0000
0000
0000
0000
0000
ENDCHAR
STARTCHAR C030
ENCODING 24
SWIDTH 960 0
DWIDTH 10 0
BBX 10 20 0 -4
BITMAP
0000
0000
0000
0000
0000
0000
0000
0000
0000
0000
FFC0
FFC0
0C00
0C00
0C00
0C00
0C00
0C00
0C00
0C00
ENDCHAR
STARTCHAR C031
ENCODING 25
SWIDTH 960 0
DWIDTH 10 0
BBX 10 20 0 -4
BITMAP
0C00
0C00
0C00
0C00
0C00
0C00
0C00
0C00
0C00
0C00
0C00
0C00
0C00
0C00
0C00
0C00
0C00
0C00
0C00
0C00
ENDCHAR
STARTCHAR C032
ENCODING 26
SWIDTH 960 0
DWIDTH 10 0
BBX 10 20 0 -4
BITMAP
0000
0000
0300
0300
0C00
0C00
3000
3000
0C00
0C00
0300
0300
0000
0000
3F00
3F00
0000
0000
0000
0000
ENDCHAR
STARTCHAR C033
ENCODING 27
SWIDTH 960 0
DWIDTH 10 0
BBX 10 20 0 -4
BITMAP
0000
0000
3000
3000
0C00
0C00
0300
0300
0C00
0C00
3000
3000
0000
0000
3F00
3F00
0000
0000
0000
0000
ENDCHAR
STARTCHAR C034
ENCODING 28
SWIDTH 960 0
DWIDTH 10 0
BBX 10 20 0 -4
BITMAP
0000
0000
0000
0000
FFC0
FFC0
3300
3300
3300
3300
3300
3300
3300
3300
C300
C300
0000
0000
0000
0000
ENDCHAR
STARTCHAR C035
ENCODING 29
SWIDTH 960 0
DWIDTH 10 0
BBX 10 20 0 -4
BITMAP
0000
0000
0000
0000
00C0
00C0
FFC0
FFC0
0C00
0C00
FFC0
FFC0
C000
C000
0000
0000
0000
0000
0000
0000
ENDCHAR
STARTCHAR C037
ENCODING 31
SWIDTH 960 0
DWIDTH 10 0
BBX 10 20 0 -4
BITMAP
0000
0000
0000
0000
0000
0000
0000
0000
0000
0000
0000
0000
0C00
0C00
0000
0000
0000
0000
0000
0000
ENDCHAR
STARTCHAR space
ENCODING 32
SWIDTH 960 0
DWIDTH 10 0
BBX 10 20 0 -4
BITMAP
0000
0000
0000
0000
0000
0000
0000
0000
0000
0000
0000
0000
0000
0000
0000
0000
0000
0000
0000
0000
ENDCHAR
STARTCHAR exclam
ENCODING 33
SWIDTH 960 0
DWIDTH 10 0
BBX 10 20 0 -4
BITMAP
3000
3000
3000
3000
3000
3000
3000
3000
3000
3000
0000
0000
3000
3000
3000
3000
0000
0000
0000
0000
ENDCHAR
STARTCHAR quotedbl
ENCODING 34
SWIDTH 960 0
DWIDTH 10 0
BBX 10 20 0 -4
BITMAP
3300
3300
3300
3300
0000
0000
0000
0000
0000
0000
0000
0000
0000
0000
0000
0000
0000
0000
0000
0000
ENDCHAR
STARTCHAR numbersign
ENCODING 35
SWIDTH 960 0
DWIDTH 10 0
BBX 10 20 0 -4
BITMAP
3300
3300
3300
3300
3300
3300
FFC0
FFC0
3300
3300
FFC0
FFC0
3300
3300
3300
3300
3300
3300
0000
0000
ENDCHAR
STARTCHAR dollar
ENCODING 36
SWIDTH 960 0
DWIDTH 10 0
BBX 10 20 0 -4
BITMAP
0C00
0C00
0C00
0C00
3F00
3F00
CC00
CC00
3C00
3C00
0F00
0F00
FC00
FC00
0C00
0C00
0C00
0C00
0000
0000
ENDCHAR
STARTCHAR percent
ENCODING 37
SWIDTH 960 0
DWIDTH 10 0
BBX 10 20 0 -4
BITMAP
0000
0000
0000
0000
C300
C300
C300
C300
0C00
0C00
3000
3000
C300
C300
C300
C300
0000
0000
0000
0000
ENDCHAR
STARTCHAR ampersand
ENCODING 38
SWIDTH 960 0
DWIDTH 10 0
BBX 10 20 0 -4
BITMAP
0000
0000
3000
3000
CC00
CC00
CC00
CC00
3000
3000
CF00
CF00
CC00
CC00
3F00
3F00
0000
0000
0000
0000
ENDCHAR
STARTCHAR apostrophe
ENCODING 39
SWIDTH 960 0
DWIDTH 10 0
BBX 10 20 0 -4
BITMAP
3000
3000
3000
3000
C000
C000
0000
0000
0000
0000
0000
0000
0000
0000
0000
0000
0000
0000
0000
0000
ENDCHAR
STARTCHAR parenleft
ENCODING 40
SWIDTH 960 0
DWIDTH 10 0
BBX 10 20 0 -4
BITMAP
0F00
0F00
3000
3000
C000
C000
C000
C000
C000
C000
C000
C000
C000
C000
3000
3000
0F00
0F00
0000
0000
ENDCHAR
STARTCHAR parenright
ENCODING 41
SWIDTH 960 0
DWIDTH 10 0
BBX 10 20 0 -4
BITMAP
F000
F000
0C00
0C00
0300
0300
0300
0300
0300
0300
0300
0300
0300
0300
0C00
0C00
F000
F000
0000
0000
ENDCHAR
STARTCHAR asterisk
ENCODING 42
SWIDTH 960 0
DWIDTH 10 0
BBX 10 20 0 -4
BITMAP
0000
0000
0000
0000
C300
C300
3C00
3C00
FF00
FF00
3C00
3C00
C300
C300
0000
0000
0000
0000
0000
0000
ENDCHAR
STARTCHAR plus
ENCODING 43
SWIDTH 960 0
DWIDTH 10 0
BBX 10 20 0 -4
BITMAP
0000
0000
0000
0000
3000
3000
3000
3000
FC00
FC00
3000
3000
3000
3000
0000
0000
0000
0000
0000
0000
ENDCHAR
STARTCHAR comma
ENCODING 44
SWIDTH 960 0
DWIDTH 10 0
BBX 10 20 0 -4
BITMAP
0000
0000
0000
0000
0000
0000
0000
0000
0000
0000
0000
0000
3000
3000
3000
3000
C000
C000
0000
0000
ENDCHAR
STARTCHAR minus
ENCODING 45
SWIDTH 960 0
DWIDTH 10 0
BBX 10 20 0 -4
BITMAP
0000
0000
0000
0000
0000
0000
0000
0000
FF00
FF00
0000
0000
0000
0000
0000
0000
0000
0000
0000
0000
ENDCHAR
STARTCHAR period
ENCODING 46
SWIDTH 960 0
DWIDTH 10 0
BBX 10 20 0 -4
BITMAP
0000
0000
0000
0000
0000
0000
0000
0000
0000
0000
0000
0000
3000
3000
3000
3000
0000
0000
0000
0000
ENDCHAR
STARTCHAR slash
ENCODING 47
SWIDTH 960 0
DWIDTH 10 0
BBX 10 20 0 -4
BITMAP
0300
0300
0300
0300
0C00
0C00
0C00
0C00
3C00
3C00
3000
3000
3000
3000
C000
C000
C000
C000
0000
0000
ENDCHAR
STARTCHAR 0
ENCODING 48
SWIDTH 960 0
DWIDTH 10 0
BBX 10 20 0 -4
BITMAP
0000
0000
3C00
3C00
C300
C300
C300
C300
0000
0000
C300
C300
C300
C300
3C00
3C00
0000
0000
0000
0000
ENDCHAR
STARTCHAR 1
ENCODING 49
SWIDTH 960 0
DWIDTH 10 0
BBX 10 20 0 -4
BITMAP
0000
0000
0300
0300
0300
0300
0300
0300
0000
0000
0300
0300
0300
0300
0300
0300
0000
0000
0000
0000
ENDCHAR
STARTCHAR 2
ENCODING 50
SWIDTH 960 0
DWIDTH 10 0
BBX 10 20 0 -4
BITMAP
0000
0000
3C00
3C00
0300
0300
0300
0300
3C00
3C00
C000
C000
C000
C000
3C00
3C00
0000
0000
0000
0000
ENDCHAR
STARTCHAR 3
ENCODING 51
SWIDTH 960 0
DWIDTH 10 0
BBX 10 20 0 -4
BITMAP
0000
0000
3C00
3C00
0300
0300
0300
0300
3C00
3C00
0300
0300
0300
0300
3C00
3C00
0000
0000
0000
0000
ENDCHAR
STARTCHAR 4
ENCODING 52
SWIDTH 960 0
DWIDTH 10 0
BBX 10 20 0 -4
BITMAP
0000
0000
C300
C300
C300
C300
C300
C300
3C00
3C00
0300
0300
0300
0300
0300
0300
0000
0000
0000
0000
ENDCHAR
STARTCHAR 5
ENCODING 53
SWIDTH 960 0
DWIDTH 10 0
BBX 10 20 0 -4
BITMAP
0000
0000
3C00
3C00
C000
C000
C000
C000
3C00
3C00
0300
0300
0300
0300
3C00
3C00
0000
0000
0000
0000
ENDCHAR
STARTCHAR 6
ENCODING 54
SWIDTH 960 0
DWIDTH 10 0
BBX 10 20 0 -4
BITMAP
0000
0000
3C00
3C00
C000
C000
C000
C000
3C00
3C00
C300
C300
C300
C300
3C00
3C00
0000
0000
0000
0000
ENDCHAR
STARTCHAR 7
ENCODING 55
SWIDTH 960 0
DWIDTH 10 0
BBX 10 20 0 -4
BITMAP
0000
0000
3C00
3C00
0300
0300
0300
0300
0000
0000
0300
0300
0300
0300
0300
0300
0000
0000
0000
0000
ENDCHAR
STARTCHAR 8
ENCODING 56
SWIDTH 960 0
DWIDTH 10 0
BBX 10 20 0 -4
BITMAP
0000
0000
3C00
3C00
C300
C300
C300
C300
3C00
3C00
C300
C300
C300
C300
3C00
3C00
0000
0000
0000
0000
ENDCHAR
STARTCHAR 9
ENCODING 57
SWIDTH 960 0
DWIDTH 10 0
BBX 10 20 0 -4
BITMAP
0000
0000
3C00
3C00
C300
C300
C300
C300
3C00
3C00
0300
0300
0300
0300
0300
0300
0000
0000
0000
0000
ENDCHAR
STARTCHAR colon
ENCODING 58
SWIDTH 960 0
DWIDTH 10 0
BBX 10 20 0 -4
BITMAP
0000
0000
0000
0000
0000
0000
3000
3000
3000
3000
0000
0000
3000
3000
3000
3000
0000
0000
0000
0000
ENDCHAR
STARTCHAR semicolon
ENCODING 59
SWIDTH 960 0
DWIDTH 10 0
BBX 10 20 0 -4
BITMAP
0000
0000
0000
0000
0000
0000
3000
3000
3000
3000
0000
0000
3000
3000
3000
3000
C000
C000
0000
0000
ENDCHAR
STARTCHAR less
ENCODING 60
SWIDTH 960 0
DWIDTH 10 0
BBX 10 20 0 -4
BITMAP
0000
0000
0300
0300
0C00
0C00
3000
3000
C000
C000
3000
3000
0C00
0C00
0300
0300
0000
0000
0000
0000
ENDCHAR
STARTCHAR equal
ENCODING 61
SWIDTH 960 0
DWIDTH 10 0
BBX 10 20 0 -4
BITMAP
0000
0000
0000
0000
0000
0000
FF00
FF00
0000
0000
FF00
FF00
0000
0000
0000
0000
0000
0000
0000
0000
ENDCHAR
STARTCHAR greater
ENCODING 62
SWIDTH 960 0
DWIDTH 10 0
BBX 10 20 0 -4
BITMAP
0000
0000
C000
C000
3000
3000
0C00
0C00
0300
0300
0C00
0C00
3000
3000
C000
C000
0000
0000
0000
0000
ENDCHAR
STARTCHAR question
ENCODING 63
SWIDTH 960 0
DWIDTH 10 0
BBX 10 20 0 -4
BITMAP
0000
0000
FC00
FC00
0300
0300
0300
0300
3C00
3C00
3000
3000
0000
0000
3000
3000
0000
0000
0000
0000
ENDCHAR
STARTCHAR at
ENCODING 64
SWIDTH 960 0
DWIDTH 10 0
BBX 10 20 0 -4
BITMAP
0000
0000
3C00
3C00
C300
C300
C300
C300
F300
F300
F300
F300
0300
0300
3C00
3C00
0000
0000
0000
0000
ENDCHAR
STARTCHAR char65
ENCODING 65
SWIDTH 960 0
DWIDTH 10 0
BBX 10 20 0 -4
BITMAP
C000
C000
F000
F000
F000
F000
CC00
CC00
FC00
FC00
C300
C300
C300
C300
C300
C300
0000
0000
0000
0000
ENDCHAR
STARTCHAR B
ENCODING 66
SWIDTH 960 0
DWIDTH 10 0
BBX 10 20 0 -4
BITMAP
F000
F000
CC00
CC00
CC00
CC00
FC00
FC00
C300
C300
C300
C300
C300
C300
FC00
FC00
0000
0000
0000
0000
ENDCHAR
STARTCHAR C
ENCODING 67
SWIDTH 960 0
DWIDTH 10 0
BBX 10 20 0 -4
BITMAP
0300
0300
0C00
0C00
3000
3000
C000
C000
C000
C000
C000
C000
C000
C000
3F00
3F00
0000
0000
0000
0000
ENDCHAR
STARTCHAR D
ENCODING 68
SWIDTH 960 0
DWIDTH 10 0
BBX 10 20 0 -4
BITMAP
C000
C000
F000
F000
CC00
CC00
C300
C300
C300
C300
C300
C300
C300
C300
FC00
FC00
0000
0000
0000
0000
ENDCHAR
STARTCHAR E
ENCODING 69
SWIDTH 960 0
DWIDTH 10 0
BBX 10 20 0 -4
BITMAP
0300
0300
0C00
0C00
3000
3000
FC00
FC00
C000
C000
C000
C000
C000
C000
FF00
FF00
0000
0000
0000
0000
ENDCHAR
STARTCHAR F
ENCODING 70
SWIDTH 960 0
DWIDTH 10 0
BBX 10 20 0 -4
BITMAP
0300
0300
0C00
0C00
3000
3000
FC00
FC00
C000
C000
C000
C000
C000
C000
C000
C000
0000
0000
0000
0000
ENDCHAR
STARTCHAR G
ENCODING 71
SWIDTH 960 0
DWIDTH 10 0
BBX 10 20 0 -4
BITMAP
0300
0300
0C00
0C00
3000
3000
CF00
CF00
C300
C300
C300
C300
C300
C300
3F00
3F00
0000
0000
0000
0000
ENDCHAR
STARTCHAR H
ENCODING 72
SWIDTH 960 0
DWIDTH 10 0
BBX 10 20 0 -4
BITMAP
C300
C300
C300
C300
FF00
FF00
C300
C300
C300
C300
C300
C300
C300
C300
C300
C300
0000
0000
0000
0000
ENDCHAR
STARTCHAR I
ENCODING 73
SWIDTH 960 0
DWIDTH 10 0
BBX 10 20 0 -4
BITMAP
FC00
FC00
3000
3000
3000
3000
3000
3000
3000
3000
3000
3000
3000
3000
FC00
FC00
0000
0000
0000
0000
ENDCHAR
STARTCHAR J
ENCODING 74
SWIDTH 960 0
DWIDTH 10 0
BBX 10 20 0 -4
BITMAP
3F00
3F00
0300
0300
0300
0300
0300
0300
0300
0300
0300
0300
0C00
0C00
F000
F000
0000
0000
0000
0000
ENDCHAR
STARTCHAR K
ENCODING 75
SWIDTH 960 0
DWIDTH 10 0
BBX 10 20 0 -4
BITMAP
C300
C300
CC00
CC00
F000
F000
CC00
CC00
C300
C300
C300
C300
C300
C300
C300
C300
0000
0000
0000
0000
ENDCHAR
STARTCHAR L
ENCODING 76
SWIDTH 960 0
DWIDTH 10 0
BBX 10 20 0 -4
BITMAP
C000
C000
C000
C000
C000
C000
C000
C000
C000
C000
C000
C000
C000
C000
FF00
FF00
0000
0000
0000
0000
ENDCHAR
STARTCHAR M
ENCODING 77
SWIDTH 960 0
DWIDTH 10 0
BBX 10 20 0 -4
BITMAP
C300
C300
FF00
FF00
FF00
FF00
CF00
CF00
C300
C300
C300
C300
C300
C300
C300
C300
0000
0000
0000
0000
ENDCHAR
STARTCHAR N
ENCODING 78
SWIDTH 960 0
DWIDTH 10 0
BBX 10 20 0 -4
BITMAP
C300
C300
F300
F300
CF00
CF00
C300
C300
C300
C300
C300
C300
C300
C300
C300
C300
0000
0000
0000
0000
ENDCHAR
STARTCHAR O
ENCODING 79
SWIDTH 960 0
DWIDTH 10 0
BBX 10 20 0 -4
BITMAP
3C00
3C00
C300
C300
C300
C300
C300
C300
C300
C300
C300
C300
C300
C300
3C00
3C00
0000
0000
0000
0000
ENDCHAR
STARTCHAR P
ENCODING 80
SWIDTH 960 0
DWIDTH 10 0
BBX 10 20 0 -4
BITMAP
FC00
FC00
C300
C300
C300
C300
FC00
FC00
C000
C000
C000
C000
C000
C000
C000
C000
0000
0000
0000
0000
ENDCHAR
STARTCHAR Q
ENCODING 81
SWIDTH 960 0
DWIDTH 10 0
BBX 10 20 0 -4
BITMAP
3C00
3C00
C300
C300
C300
C300
C300
C300
C300
C300
F300
F300
CF00
CF00
3F00
3F00
00C0
00C0
0000
0000
ENDCHAR
STARTCHAR R
ENCODING 82
SWIDTH 960 0
DWIDTH 10 0
BBX 10 20 0 -4
BITMAP
FC00
FC00
C300
C300
C300
C300
FC00
FC00
C300
C300
C300
C300
C300
C300
C300
C300
0000
0000
0000
0000
ENDCHAR
STARTCHAR S
ENCODING 83
SWIDTH 960 0
DWIDTH 10 0
BBX 10 20 0 -4
BITMAP
3F00
3F00
C000
C000
C000
C000
3000
3000
0C00
0C00
0300
0300
0300
0300
FC00
FC00
0000
0000
0000
0000
ENDCHAR
STARTCHAR T
ENCODING 84
SWIDTH 960 0
DWIDTH 10 0
BBX 10 20 0 -4
BITMAP
FF00
FF00
0C00
0C00
0C00
0C00
0C00
0C00
0C00
0C00
0C00
0C00
0C00
0C00
0C00
0C00
0000
0000
0000
0000
ENDCHAR
STARTCHAR U
ENCODING 85
SWIDTH 960 0
DWIDTH 10 0
BBX 10 20 0 -4
BITMAP
C300
C300
C300
C300
C300
C300
C300
C300
C300
C300
C300
C300
C300
C300
3C00
3C00
0000
0000
0000
0000
ENDCHAR
STARTCHAR V
ENCODING 86
SWIDTH 960 0
DWIDTH 10 0
BBX 10 20 0 -4
BITMAP
C300
C300
C300
C300
C300
C300
C300
C300
C300
C300
CC00
CC00
F000
F000
C000
C000
0000
0000
0000
0000
ENDCHAR
STARTCHAR W
ENCODING 87
SWIDTH 960 0
DWIDTH 10 0
BBX 10 20 0 -4
BITMAP
C300
C300
C300
C300
C300
C300
C300
C300
CF00
CF00
FF00
FF00
FF00
FF00
C300
C300
0000
0000
0000
0000
ENDCHAR
STARTCHAR X
ENCODING 88
SWIDTH 960 0
DWIDTH 10 0
BBX 10 20 0 -4
BITMAP
C300
C300
C300
C300
C300
C300
3C00
3C00
C300
C300
C300
C300
C300
C300
C300
C300
0000
0000
0000
0000
ENDCHAR
STARTCHAR Y
ENCODING 89
SWIDTH 960 0
DWIDTH 10 0
BBX 10 20 0 -4
BITMAP
C300
C300
C300
C300
3300
3300
0F00
0F00
0300
0300
0300
0300
0300
0300
0300
0300
0000
0000
0000
0000
ENDCHAR
STARTCHAR Z
ENCODING 90
SWIDTH 960 0
DWIDTH 10 0
BBX 10 20 0 -4
BITMAP
FF00
FF00
0C00
0C00
3000
3000
C000
C000
C000
C000
C000
C000
C000
C000
FF00
FF00
0000
0000
0000
0000
ENDCHAR
STARTCHAR bracketleft
ENCODING 91
SWIDTH 960 0
DWIDTH 10 0
BBX 10 20 0 -4
BITMAP
FF00
FF00
C000
C000
C000
C000
C000
C000
C000
C000
C000
C000
C000
C000
C000
C000
FF00
FF00
0000
0000
ENDCHAR
STARTCHAR backslash
ENCODING 92
SWIDTH 960 0
DWIDTH 10 0
BBX 10 20 0 -4
BITMAP
C000
C000
C000
C000
3000
3000
3000
3000
3C00
3C00
0C00
0C00
0C00
0C00
0300
0300
0300
0300
0000
0000
ENDCHAR
STARTCHAR bracketright
ENCODING 93
SWIDTH 960 0
DWIDTH 10 0
BBX 10 20 0 -4
BITMAP
FF00
FF00
0300
0300
0300
0300
0300
0300
0300
0300
0300
0300
0300
0300
0300
0300
FF00
FF00
0000
0000
ENDCHAR
STARTCHAR asciicircum
ENCODING 94
SWIDTH 960 0
DWIDTH 10 0
BBX 10 20 0 -4
BITMAP
3000
3000
CC00
CC00
0000
0000
0000
0000
0000
0000
0000
0000
0000
0000
0000
0000
0000
0000
0000
0000
ENDCHAR
STARTCHAR underscore
ENCODING 95
SWIDTH 960 0
DWIDTH 10 0
BBX 10 20 0 -4
BITMAP
0000
0000
0000
0000
0000
0000
0000
0000
0000
0000
0000
0000
0000
0000
0000
0000
FFC0
FFC0
0000
0000
ENDCHAR
STARTCHAR grave
ENCODING 96
SWIDTH 960 0
DWIDTH 10 0
BBX 10 20 0 -4
BITMAP
3000
3000
3000
3000
0C00
0C00
0000
0000
0000
0000
0000
0000
0000
0000
0000
0000
0000
0000
0000
0000
ENDCHAR
STARTCHAR a
ENCODING 97
SWIDTH 960 0
DWIDTH 10 0
BBX 10 20 0 -4
BITMAP
0000
0000
0000
0000
0000
0000
3300
3300
CF00
CF00
C300
C300
C300
C300
3F00
3F00
0000
0000
0000
0000
ENDCHAR
STARTCHAR b
ENCODING 98
SWIDTH 960 0
DWIDTH 10 0
BBX 10 20 0 -4
BITMAP
C000
C000
C000
C000
C000
C000
FC00
FC00
C300
C300
C300
C300
C300
C300
FC00
FC00
0000
0000
0000
0000
ENDCHAR
STARTCHAR c
ENCODING 99
SWIDTH 960 0
DWIDTH 10 0
BBX 10 20 0 -4
BITMAP
0000
0000
0000
0000
0000
0000
3F00
3F00
C000
C000
C000
C000
C000
C000
3F00
3F00
0000
0000
0000
0000
ENDCHAR
STARTCHAR d
ENCODING 100
SWIDTH 960 0
DWIDTH 10 0
BBX 10 20 0 -4
BITMAP
0300
0300
0300
0300
0300
0300
3F00
3F00
C300
C300
C300
C300
C300
C300
3F00
3F00
0000
0000
0000
0000
ENDCHAR
STARTCHAR e
ENCODING 101
SWIDTH 960 0
DWIDTH 10 0
BBX 10 20 0 -4
BITMAP
0000
0000
0000
0000
0000
0000
3C00
3C00
C300
C300
FF00
FF00
C000
C000
3F00
3F00
0000
0000
0000
0000
ENDCHAR
STARTCHAR f
ENCODING 102
SWIDTH 960 0
DWIDTH 10 0
BBX 10 20 0 -4
BITMAP
0F00
0F00
3000
3000
3000
3000
FF00
FF00
3000
3000
3000
3000
3000
3000
3000
3000
0000
0000
0000
0000
ENDCHAR
STARTCHAR g
ENCODING 103
SWIDTH 960 0
DWIDTH 10 0
BBX 10 20 0 -4
BITMAP
0000
0000
0000
0000
0000
0000
3F00
3F00
C300
C300
C300
C300
3F00
3F00
0300
0300
0300
0300
FC00
FC00
ENDCHAR
STARTCHAR h
ENCODING 104
SWIDTH 960 0
DWIDTH 10 0
BBX 10 20 0 -4
BITMAP
C000
C000
C000
C000
C000
C000
FC00
FC00
C300
C300
C300
C300
C300
C300
C300
C300
0000
0000
0000
0000
ENDCHAR
STARTCHAR i
ENCODING 105
SWIDTH 960 0
DWIDTH 10 0
BBX 10 20 0 -4
BITMAP
0000
0000
0000
0000
0C00
0C00
0000
0000
0C00
0C00
0C00
0C00
0C00
0C00
0C00
0C00
0000
0000
0000
0000
ENDCHAR
STARTCHAR j
ENCODING 106
SWIDTH 960 0
DWIDTH 10 0
BBX 10 20 0 -4
BITMAP
0000
0000
0000
0000
0300
0300
0000
0000
0300
0300
0300
0300
0300
0300
0300
0300
0300
0300
3C00
3C00
ENDCHAR
STARTCHAR k
ENCODING 107
SWIDTH 960 0
DWIDTH 10 0
BBX 10 20 0 -4
BITMAP
C000
C000
C000
C000
C000
C000
C000
C000
CC00
CC00
F000
F000
CC00
CC00
C300
C300
0000
0000
0000
0000
ENDCHAR
STARTCHAR l
ENCODING 108
SWIDTH 960 0
DWIDTH 10 0
BBX 10 20 0 -4
BITMAP
3C00
3C00
0C00
0C00
0C00
0C00
0C00
0C00
0C00
0C00
0C00
0C00
0C00
0C00
3F00
3F00
0000
0000
0000
0000
ENDCHAR
STARTCHAR m
ENCODING 109
SWIDTH 960 0
DWIDTH 10 0
BBX 10 20 0 -4
BITMAP
0000
0000
0000
0000
0000
0000
C300
C300
FF00
FF00
CF00
CF00
C300
C300
C300
C300
0000
0000
0000
0000
ENDCHAR
STARTCHAR n
ENCODING 110
SWIDTH 960 0
DWIDTH 10 0
BBX 10 20 0 -4
BITMAP
0000
0000
0000
0000
0000
0000
FC00
FC00
C300
C300
C300
C300
C300
C300
C300
C300
0000
0000
0000
0000
ENDCHAR
STARTCHAR o
ENCODING 111
SWIDTH 960 0
DWIDTH 10 0
BBX 10 20 0 -4
BITMAP
0000
0000
0000
0000
0000
0000
3C00
3C00
C300
C300
C300
C300
C300
C300
3C00
3C00
0000
0000
0000
0000
ENDCHAR
STARTCHAR p
ENCODING 112
SWIDTH 960 0
DWIDTH 10 0
BBX 10 20 0 -4
BITMAP
0000
0000
0000
0000
0000
0000
FC00
FC00
C300
C300
C300
C300
C300
C300
FC00
FC00
C000
C000
C000
C000
ENDCHAR
STARTCHAR q
ENCODING 113
SWIDTH 960 0
DWIDTH 10 0
BBX 10 20 0 -4
BITMAP
0000
0000
0000
0000
0000
0000
3F00
3F00
C300
C300
C300
C300
C300
C300
3F00
3F00
0300
0300
0300
0300
ENDCHAR
STARTCHAR r
ENCODING 114
SWIDTH 960 0
DWIDTH 10 0
BBX 10 20 0 -4
BITMAP
0000
0000
0000
0000
0000
0000
CF00
CF00
F000
F000
C000
C000
C000
C000
C000
C000
0000
0000
0000
0000
ENDCHAR
STARTCHAR s
ENCODING 115
SWIDTH 960 0
DWIDTH 10 0
BBX 10 20 0 -4
BITMAP
0000
0000
0000
0000
0000
0000
3F00
3F00
C000
C000
3C00
3C00
0300
0300
FC00
FC00
0000
0000
0000
0000
ENDCHAR
STARTCHAR t
ENCODING 116
SWIDTH 960 0
DWIDTH 10 0
BBX 10 20 0 -4
BITMAP
0C00
0C00
0C00
0C00
0C00
0C00
FF00
FF00
0C00
0C00
0C00
0C00
0C00
0C00
0C00
0C00
0000
0000
0000
0000
ENDCHAR
STARTCHAR u
ENCODING 117
SWIDTH 960 0
DWIDTH 10 0
BBX 10 20 0 -4
BITMAP
0000
0000
0000
0000
0000
0000
C300
C300
C300
C300
C300
C300
C300
C300
3C00
3C00
0000
0000
0000
0000
ENDCHAR
STARTCHAR v
ENCODING 118
SWIDTH 960 0
DWIDTH 10 0
BBX 10 20 0 -4
BITMAP
0000
0000
0000
0000
0000
0000
C300
C300
C300
C300
CC00
CC00
F000
F000
C000
C000
0000
0000
0000
0000
ENDCHAR
STARTCHAR w
ENCODING 119
SWIDTH 960 0
DWIDTH 10 0
BBX 10 20 0 -4
BITMAP
0000
0000
0000
0000
0000
0000
C300
C300
C300
C300
CF00
CF00
FF00
FF00
C300
C300
0000
0000
0000
0000
ENDCHAR
STARTCHAR x
ENCODING 120
SWIDTH 960 0
DWIDTH 10 0
BBX 10 20 0 -4
BITMAP
0000
0000
0000
0000
0000
0000
C300
C300
C300
C300
3C00
3C00
C300
C300
C300
C300
0000
0000
0000
0000
ENDCHAR
STARTCHAR y
ENCODING 121
SWIDTH 960 0
DWIDTH 10 0
BBX 10 20 0 -4
BITMAP
0000
0000
0000
0000
0000
0000
C300
C300
C300
C300
C300
C300
C300
C300
3F00
3F00
0300
0300
FC00
FC00
ENDCHAR
STARTCHAR z
ENCODING 122
SWIDTH 960 0
DWIDTH 10 0
BBX 10 20 0 -4
BITMAP
0000
0000
0000
0000
0000
0000
FF00
FF00
0300
0300
3C00
3C00
C000
C000
FF00
FF00
0000
0000
0000
0000
ENDCHAR
STARTCHAR braceleft
ENCODING 123
SWIDTH 960 0
DWIDTH 10 0
BBX 10 20 0 -4
BITMAP
0F00
0F00
3000
3000
3000
3000
3000
3000
C000
C000
3000
3000
3000
3000
3000
3000
0F00
0F00
0000
0000
ENDCHAR
STARTCHAR bar
ENCODING 124
SWIDTH 960 0
DWIDTH 10 0
BBX 10 20 0 -4
BITMAP
0C00
0C00
0C00
0C00
0C00
0C00
0C00
0C00
0C00
0C00
0C00
0C00
0C00
0C00
0C00
0C00
0000
0000
0000
0000
ENDCHAR
STARTCHAR braceright
ENCODING 125
SWIDTH 960 0
DWIDTH 10 0
BBX 10 20 0 -4
BITMAP
F000
F000
0C00
0C00
0C00
0C00
0C00
0C00
0300
0300
0C00
0C00
0C00
0C00
0C00
0C00
F000
F000
0000
0000
ENDCHAR
STARTCHAR asciitilde
ENCODING 126
SWIDTH 960 0
DWIDTH 10 0
BBX 10 20 0 -4
BITMAP
3300
3300
CC00
CC00
C000
C000
0000
0000
0000
0000
0000
0000
0000
0000
0000
0000
0000
0000
0000
0000
ENDCHAR
STARTCHAR C177
ENCODING 127
SWIDTH 960 0
DWIDTH 10 0
BBX 10 20 0 -4
BITMAP
0000
0000
0000
0000
3C00
3C00
3C00
3C00
3C00
3C00
C300
C300
C300
C300
C300
C300
FF00
FF00
0000
0000
ENDCHAR
STARTCHAR C200
ENCODING 128
SWIDTH 960 0
DWIDTH 10 0
BBX 10 20 0 -4
BITMAP
0000
0000
0F00
0F00
30C0
30C0
CF00
CF00
CCC0
CCC0
CC00
CC00
CC00
CC00
CC00
CC00
FC00
FC00
0000
0000
ENDCHAR
STARTCHAR C201
ENCODING 129
SWIDTH 960 0
DWIDTH 10 0
BBX 10 20 0 -4
BITMAP
0000
0000
00C0
00C0
00C0
00C0
C0C0
C0C0
30C0
30C0
CCC0
CCC0
33C0
33C0
0C00
0C00
03C0
03C0
0000
0000
ENDCHAR
STARTCHAR C202
ENCODING 130
SWIDTH 960 0
DWIDTH 10 0
BBX 10 20 0 -4
BITMAP
0000
0000
F000
F000
3000
3000
3000
3000
3000
3000
3000
3000
3000
3000
C000
C000
0000
0000
0000
0000
ENDCHAR
STARTCHAR C203
ENCODING 131
SWIDTH 960 0
DWIDTH 10 0
BBX 10 20 0 -4
BITMAP
0000
0000
0FC0
0FC0
3000
3000
CFC0
CFC0
C000
C000
CFC0
CFC0
CFC0
CFC0
3000
3000
0FC0
0FC0
0000
0000
ENDCHAR
STARTCHAR C204
ENCODING 132
SWIDTH 960 0
DWIDTH 10 0
BBX 10 20 0 -4
BITMAP
0000
0000
FFC0
FFC0
0000
0000
FFC0
FFC0
0C00
0C00
FC00
FC00
FFC0
FFC0
0000
0000
FFC0
FFC0
0000
0000
ENDCHAR
STARTCHAR C205
ENCODING 133
SWIDTH 960 0
DWIDTH 10 0
BBX 10 20 0 -4
BITMAP
0000
0000
F000
F000
3000
3000
F000
F000
0000
0000
0000
0000
F000
F000
3000
3000
F000
F000
0000
0000
ENDCHAR
STARTCHAR C206
ENCODING 134
SWIDTH 960 0
DWIDTH 10 0
BBX 10 20 0 -4
BITMAP
0000
0000
FC00
FC00
CFC0
CFC0
3000
3000
0FC0
0FC0
0FC0
0FC0
3000
3000
CFC0
CFC0
FC00
FC00
0000
0000
ENDCHAR
STARTCHAR C207
ENCODING 135
SWIDTH 960 0
DWIDTH 10 0
BBX 10 20 0 -4
BITMAP
0000
0000
0000
0000
0000
0000
FFC0
FFC0
0000
0000
0000
0000
FFC0
FFC0
0000
0000
0000
0000
0000
0000
ENDCHAR
STARTCHAR C210
ENCODING 136
SWIDTH 960 0
DWIDTH 10 0
BBX 10 20 0 -4
BITMAP
0000
0000
03C0
03C0
3F00
3F00
C0C0
C0C0
3F00
3F00
3F00
3F00
C0C0
C0C0
3F00
3F00
03C0
03C0
0000
0000
ENDCHAR
STARTCHAR C211
ENCODING 137
SWIDTH 960 0
DWIDTH 10 0
BBX 10 20 0 -4
BITMAP
0000
0000
C000
C000
C000
C000
0000
0000
0000
0000
0000
0000
0000
0000
C000
C000
C000
C000
0000
0000
ENDCHAR
STARTCHAR C212
ENCODING 138
SWIDTH 960 0
DWIDTH 10 0
BBX 10 20 0 -4
BITMAP
0000
0000
FC00
FC00
CC00
CC00
CC00
CC00
CC00
CC00
CC00
CC00
CFC0
CFC0
3000
3000
0FC0
0FC0
0000
0000
ENDCHAR
STARTCHAR C213
ENCODING 139
SWIDTH 960 0
DWIDTH 10 0
BBX 10 20 0 -4
BITMAP
0000
0000
00C0
00C0
00C0
00C0
00C0
00C0
00C0
00C0
00C0
00C0
FFC0
FFC0
0000
0000
FFC0
FFC0
0000
0000
ENDCHAR
STARTCHAR C214
ENCODING 140
SWIDTH 960 0
DWIDTH 10 0
BBX 10 20 0 -4
BITMAP
0000
0000
F000
F000
3000
3000
3000
3000
3000
3000
3000
3000
3000
3000
C000
C000
0000
0000
0000
0000
ENDCHAR
STARTCHAR C215
ENCODING 141
SWIDTH 960 0
DWIDTH 10 0
BBX 10 20 0 -4
BITMAP
0000
0000
3FC0
3FC0
C000
C000
CFC0
CFC0
C000
C000
3FC0
3FC0
FFC0
FFC0
C000
C000
FFC0
FFC0
0000
0000
ENDCHAR
STARTCHAR C216
ENCODING 142
SWIDTH 960 0
DWIDTH 10 0
BBX 10 20 0 -4
BITMAP
0000
0000
FFC0
FFC0
0000
0000
FFC0
FFC0
0000
0000
FFC0
FFC0
FFC0
FFC0
0000
0000
FFC0
FFC0
0000
0000
ENDCHAR
STARTCHAR C217
ENCODING 143
SWIDTH 960 0
DWIDTH 10 0
BBX 10 20 0 -4
BITMAP
0000
0000
F000
F000
3000
3000
F000
F000
C000
C000
3000
3000
3000
3000
3000
3000
C000
C000
0000
0000
ENDCHAR
STARTCHAR C220
ENCODING 144
SWIDTH 960 0
DWIDTH 10 0
BBX 10 20 0 -4
BITMAP
0000
0000
0C00
0C00
3F00
3F00
3F00
3F00
3C00
3C00
3CC0
3CC0
3C00
3C00
FFC0
FFC0
FFC0
FFC0
3CC0
3CC0
ENDCHAR
STARTCHAR C221
ENCODING 145
SWIDTH 960 0
DWIDTH 10 0
BBX 10 20 0 -4
BITMAP
0000
0000
F000
F000
03C0
03C0
F3C0
F3C0
F300
F300
C300
C300
3000
3000
FF00
FF00
F000
F000
C000
C000
ENDCHAR
STARTCHAR C222
ENCODING 146
SWIDTH 960 0
DWIDTH 10 0
BBX 10 20 0 -4
BITMAP
03C0
03C0
00C0
00C0
0C00
0C00
CCC0
CCC0
CFC0
CFC0
CF00
CF00
0000
0000
00C0
00C0
03C0
03C0
0000
0000
ENDCHAR
STARTCHAR C223
ENCODING 147
SWIDTH 960 0
DWIDTH 10 0
BBX 10 20 0 -4
BITMAP
00C0
00C0
F3C0
F3C0
FF00
FF00
3F00
3F00
3F00
3F00
FFC0
FFC0
F3C0
F3C0
F3C0
F3C0
0000
0000
0000
0000
ENDCHAR
STARTCHAR C224
ENCODING 148
SWIDTH 960 0
DWIDTH 10 0
BBX 10 20 0 -4
BITMAP
FFC0
FFC0
C0C0
C0C0
C0C0
C0C0
C0C0
C0C0
C0C0
C0C0
C0C0
C0C0
C0C0
C0C0
C0C0
C0C0
C0C0
C0C0
FFC0
FFC0
ENDCHAR
STARTCHAR C225
ENCODING 149
SWIDTH 960 0
DWIDTH 10 0
BBX 10 20 0 -4
BITMAP
FFC0
FFC0
C0C0
C0C0
C0C0
C0C0
C0C0
C0C0
C0C0
C0C0
C0C0
C0C0
C0C0
C0C0
C0C0
C0C0
C0C0
C0C0
FFC0
FFC0
ENDCHAR
STARTCHAR C226
ENCODING 150
SWIDTH 960 0
DWIDTH 10 0
BBX 10 20 0 -4
BITMAP
FFC0
FFC0
C0C0
C0C0
C0C0
C0C0
C0C0
C0C0
C0C0
C0C0
C0C0
C0C0
C0C0
C0C0
C0C0
C0C0
C0C0
C0C0
FFC0
FFC0
ENDCHAR
STARTCHAR C227
ENCODING 151
SWIDTH 960 0
DWIDTH 10 0
BBX 10 20 0 -4
BITMAP
FFC0
FFC0
C0C0
C0C0
C0C0
C0C0
C0C0
C0C0
C0C0
C0C0
C0C0
C0C0
C0C0
C0C0
C0C0
C0C0
C0C0
C0C0
FFC0
FFC0
ENDCHAR
STARTCHAR C230
ENCODING 152
SWIDTH 960 0
DWIDTH 10 0
BBX 10 20 0 -4
BITMAP
FFC0
FFC0
C0C0
C0C0
C0C0
C0C0
C0C0
C0C0
C0C0
C0C0
C0C0
C0C0
C0C0
C0C0
C0C0
C0C0
C0C0
C0C0
FFC0
FFC0
ENDCHAR
STARTCHAR C231
ENCODING 153
SWIDTH 960 0
DWIDTH 10 0
BBX 10 20 0 -4
BITMAP
FFC0
FFC0
C0C0
C0C0
C0C0
C0C0
C0C0
C0C0
C0C0
C0C0
C0C0
C0C0
C0C0
C0C0
C0C0
C0C0
C0C0
C0C0
FFC0
FFC0
ENDCHAR
STARTCHAR C232
ENCODING 154
SWIDTH 960 0
DWIDTH 10 0
BBX 10 20 0 -4
BITMAP
FFC0
FFC0
C0C0
C0C0
C0C0
C0C0
C0C0
C0C0
C0C0
C0C0
C0C0
C0C0
C0C0
C0C0
C0C0
C0C0
C0C0
C0C0
FFC0
FFC0
ENDCHAR
STARTCHAR C233
ENCODING 155
SWIDTH 960 0
DWIDTH 10 0
BBX 10 20 0 -4
BITMAP
0000
0000
0C00
0C00
0C00
0C00
3F00
3F00
C000
C000
C000
C000
C000
C000
3F00
3F00
0C00
0C00
0C00
0C00
ENDCHAR
STARTCHAR C234
ENCODING 156
SWIDTH 960 0
DWIDTH 10 0
BBX 10 20 0 -4
BITMAP
0000
0000
0000
0000
0C00
0C00
3300
3300
3000
3000
3C00
3C00
3000
3000
FC00
FC00
F300
F300
0000
0000
ENDCHAR
STARTCHAR C235
ENCODING 157
SWIDTH 960 0
DWIDTH 10 0
BBX 10 20 0 -4
BITMAP
C300
C300
C300
C300
3300
3300
0F00
0F00
0300
0300
0F00
0F00
0300
0300
0F00
0F00
0300
0300
0000
0000
ENDCHAR
STARTCHAR C236
ENCODING 158
SWIDTH 960 0
DWIDTH 10 0
BBX 10 20 0 -4
BITMAP
FFC0
FFC0
C0C0
C0C0
C0C0
C0C0
C0C0
C0C0
C0C0
C0C0
C0C0
C0C0
C0C0
C0C0
C0C0
C0C0
C0C0
C0C0
FFC0
FFC0
ENDCHAR
STARTCHAR C237
ENCODING 159
SWIDTH 960 0
DWIDTH 10 0
BBX 10 20 0 -4
BITMAP
0300
0300
0CC0
0CC0
0C00
0C00
0C00
0C00
3F00
3F00
0C00
0C00
0C00
0C00
0C00
0C00
CC00
CC00
3000
3000
ENDCHAR
STARTCHAR nobreakspace
ENCODING 160
SWIDTH 960 0
DWIDTH 10 0
BBX 10 20 0 -4
BITMAP
0000
0000
0000
0000
0000
0000
0000
0000
0000
0000
0000
0000
0000
0000
0000
0000
0000
0000
0000
0000
ENDCHAR
STARTCHAR exclamdown
ENCODING 161
SWIDTH 960 0
DWIDTH 10 0
BBX 10 20 0 -4
BITMAP
3000
3000
3000
3000
0000
0000
3000
3000
3000
3000
3000
3000
3000
3000
3000
3000
0000
0000
0000
0000
ENDCHAR
STARTCHAR cent
ENCODING 162
SWIDTH 960 0
DWIDTH 10 0
BBX 10 20 0 -4
BITMAP
0000
0000
0C00
0C00
0C00
0C00
3F00
3F00
C000
C000
C000
C000
C000
C000
3F00
3F00
0C00
0C00
0C00
0C00
ENDCHAR
STARTCHAR sterling
ENCODING 163
SWIDTH 960 0
DWIDTH 10 0
BBX 10 20 0 -4
BITMAP
0000
0000
0C00
0C00
3300
3300
3000
3000
FC00
FC00
3000
3000
3000
3000
3300
3300
CC00
CC00
0000
0000
ENDCHAR
STARTCHAR currency
ENCODING 164
SWIDTH 960 0
DWIDTH 10 0
BBX 10 20 0 -4
BITMAP
0000
0000
0000
0000
C0C0
C0C0
3F00
3F00
3300
3300
3300
3300
3F00
3F00
C0C0
C0C0
0000
0000
0000
0000
ENDCHAR
STARTCHAR yen
ENCODING 165
SWIDTH 960 0
DWIDTH 10 0
BBX 10 20 0 -4
BITMAP
C300
C300
3300
3300
0C00
0C00
0C00
0C00
3F00
3F00
0C00
0C00
3F00
3F00
0C00
0C00
0000
0000
0000
0000
ENDCHAR
STARTCHAR brokenbar
ENCODING 166
SWIDTH 960 0
DWIDTH 10 0
BBX 10 20 0 -4
BITMAP
0C00
0C00
0C00
0C00
0C00
0C00
0C00
0C00
0000
0000
0C00
0C00
0C00
0C00
0C00
0C00
0C00
0C00
0000
0000
ENDCHAR
STARTCHAR section
ENCODING 167
SWIDTH 960 0
DWIDTH 10 0
BBX 10 20 0 -4
BITMAP
0300
0300
0CC0
0CC0
0C00
0C00
0C00
0C00
3F00
3F00
0C00
0C00
0C00
0C00
0C00
0C00
CC00
CC00
3000
3000
ENDCHAR
STARTCHAR diaeresis
ENCODING 168
SWIDTH 960 0
DWIDTH 10 0
BBX 10 20 0 -4
BITMAP
F3C0
F3C0
0000
0000
0000
0000
0000
0000
0000
0000
0000
0000
0000
0000
0000
0000
0000
0000
0000
0000
ENDCHAR
STARTCHAR copyright
ENCODING 169
SWIDTH 960 0
DWIDTH 10 0
BBX 10 20 0 -4
BITMAP
3F00
3F00
C0C0
C0C0
CCC0
CCC0
F3C0
F3C0
F0C0
F0C0
F0C0
F0C0
F3C0
F3C0
CCC0
CCC0
C0C0
C0C0
3F00
3F00
ENDCHAR
STARTCHAR ordfeminine
ENCODING 170
SWIDTH 960 0
DWIDTH 10 0
BBX 10 20 0 -4
BITMAP
0000
0000
0000
0000
3C00
3C00
C300
C300
C300
C300
3F00
3F00
0000
0000
FF00
FF00
0000
0000
0000
0000
ENDCHAR
STARTCHAR guillemotleft
ENCODING 171
SWIDTH 960 0
DWIDTH 10 0
BBX 10 20 0 -4
BITMAP
0000
0000
0000
0000
0000
0000
3300
3300
CC00
CC00
3300
3300
0000
0000
0000
0000
0000
0000
0000
0000
ENDCHAR
STARTCHAR notsign
ENCODING 172
SWIDTH 960 0
DWIDTH 10 0
BBX 10 20 0 -4
BITMAP
0000
0000
FF00
FF00
0300
0300
0000
0000
0000
0000
0000
0000
0000
0000
0000
0000
0000
0000
0000
0000
ENDCHAR
STARTCHAR hyphen
ENCODING 173
SWIDTH 960 0
DWIDTH 10 0
BBX 10 20 0 -4
BITMAP
0000
0000
0000
0000
0000
0000
0000
0000
FFC0
FFC0
0000
0000
0000
0000
0000
0000
0000
0000
0000
0000
ENDCHAR
STARTCHAR registered
ENCODING 174
SWIDTH 960 0
DWIDTH 10 0
BBX 10 20 0 -4
BITMAP
3F00
3F00
C0C0
C0C0
FCC0
FCC0
F3C0
F3C0
F3C0
F3C0
FCC0
FCC0
F3C0
F3C0
F3C0
F3C0
C0C0
C0C0
3F00
3F00
ENDCHAR
STARTCHAR macron
ENCODING 175
SWIDTH 960 0
DWIDTH 10 0
BBX 10 20 0 -4
BITMAP
FFC0
FFC0
0000
0000
0000
0000
0000
0000
0000
0000
0000
0000
0000
0000
0000
0000
0000
0000
0000
0000
ENDCHAR
STARTCHAR degree
ENCODING 176
SWIDTH 960 0
DWIDTH 10 0
BBX 10 20 0 -4
BITMAP
0000
0000
0C00
0C00
3300
3300
0C00
0C00
0000
0000
0000
0000
0000
0000
0000
0000
0000
0000
0000
0000
ENDCHAR
STARTCHAR plusminus
ENCODING 177
SWIDTH 960 0
DWIDTH 10 0
BBX 10 20 0 -4
BITMAP
0000
0000
0C00
0C00
3F00
3F00
0C00
0C00
0000
0000
3F00
3F00
0000
0000
0000
0000
0000
0000
0000
0000
ENDCHAR
STARTCHAR twosuperior
ENCODING 178
SWIDTH 960 0
DWIDTH 10 0
BBX 10 20 0 -4
BITMAP
0000
0000
0000
0000
0000
0000
F000
F000
0C00
0C00
3000
3000
FC00
FC00
0000
0000
0000
0000
0000
0000
ENDCHAR
STARTCHAR threesuperior
ENCODING 179
SWIDTH 960 0
DWIDTH 10 0
BBX 10 20 0 -4
BITMAP
0000
0000
0000
0000
F000
F000
0C00
0C00
3000
3000
0C00
0C00
F000
F000
0000
0000
0000
0000
0000
0000
ENDCHAR
STARTCHAR acute
ENCODING 180
SWIDTH 960 0
DWIDTH 10 0
BBX 10 20 0 -4
BITMAP
0300
0300
0C00
0C00
0000
0000
0000
0000
0000
0000
0000
0000
0000
0000
0000
0000
0000
0000
0000
0000
ENDCHAR
STARTCHAR mu
ENCODING 181
SWIDTH 960 0
DWIDTH 10 0
BBX 10 20 0 -4
BITMAP
0000
0000
0000
0000
3300
3300
3300
3300
3300
3300
3300
3300
3300
3300
3C00
3C00
3000
3000
C000
C000
ENDCHAR
STARTCHAR paragraph
ENCODING 182
SWIDTH 960 0
DWIDTH 10 0
BBX 10 20 0 -4
BITMAP
0000
0000
3F00
3F00
F300
F300
F300
F300
F300
F300
F300
F300
3300
3300
3300
3300
3300
3300
3300
3300
ENDCHAR
STARTCHAR periodcentered
ENCODING 183
SWIDTH 960 0
DWIDTH 10 0
BBX 10 20 0 -4
BITMAP
0000
0000
0000
0000
0000
0000
0000
0000
0000
0000
3C00
3C00
3C00
3C00
0000
0000
0000
0000
0000
0000
ENDCHAR
STARTCHAR cedilla
ENCODING 184
SWIDTH 960 0
DWIDTH 10 0
BBX 10 20 0 -4
BITMAP
0000
0000
0000
0000
0000
0000
0000
0000
0000
0000
0000
0000
0000
0000
3000
3000
C000
C000
0000
0000
ENDCHAR
STARTCHAR onesuperior
ENCODING 185
SWIDTH 960 0
DWIDTH 10 0
BBX 10 20 0 -4
BITMAP
0000
0000
0000
0000
0000
0000
3000
3000
F000
F000
3000
3000
FC00
FC00
0000
0000
0000
0000
0000
0000
ENDCHAR
STARTCHAR masculine
ENCODING 186
SWIDTH 960 0
DWIDTH 10 0
BBX 10 20 0 -4
BITMAP
0000
0000
0000
0000
3C00
3C00
C300
C300
C300
C300
3C00
3C00
0000
0000
FF00
FF00
0000
0000
0000
0000
ENDCHAR
STARTCHAR guillemotright
ENCODING 187
SWIDTH 960 0
DWIDTH 10 0
BBX 10 20 0 -4
BITMAP
0000
0000
0000
0000
0000
0000
CC00
CC00
3300
3300
CC00
CC00
0000
0000
0000
0000
0000
0000
0000
0000
ENDCHAR
STARTCHAR onequarter
ENCODING 188
SWIDTH 960 0
DWIDTH 10 0
BBX 10 20 0 -4
BITMAP
C000
C000
C000
C000
C300
C300
CC00
CC00
3300
3300
C300
C300
3300
3300
3F00
3F00
0300
0300
0000
0000
ENDCHAR
STARTCHAR onehalf
ENCODING 189
SWIDTH 960 0
DWIDTH 10 0
BBX 10 20 0 -4
BITMAP
C000
C000
C000
C000
C300
C300
CC00
CC00
3000
3000
CF00
CF00
0300
0300
0C00
0C00
0F00
0F00
0000
0000
ENDCHAR
STARTCHAR threequarters
ENCODING 190
SWIDTH 960 0
DWIDTH 10 0
BBX 10 20 0 -4
BITMAP
F000
F000
3000
3000
F000
F000
3300
3300
FC00
FC00
3000
3000
C300
C300
3300
3300
3F00
3F00
0300
0300
ENDCHAR
STARTCHAR questiondown
ENCODING 191
SWIDTH 960 0
DWIDTH 10 0
BBX 10 20 0 -4
BITMAP
0000
0000
0C00
0C00
0000
0000
0C00
0C00
3C00
3C00
C000
C000
C000
C000
3F00
3F00
0000
0000
0000
0000
ENDCHAR
STARTCHAR Agrave
ENCODING 192
SWIDTH 960 0
DWIDTH 10 0
BBX 10 20 0 -4
BITMAP
F000
F000
0000
0000
C000
C000
F000
F000
CC00
CC00
FF00
FF00
C300
C300
C300
C300
0000
0000
0000
0000
ENDCHAR
STARTCHAR Aacute
ENCODING 193
SWIDTH 960 0
DWIDTH 10 0
BBX 10 20 0 -4
BITMAP
0F00
0F00
0000
0000
C000
C000
F000
F000
CC00
CC00
FF00
FF00
C300
C300
C300
C300
0000
0000
0000
0000
ENDCHAR
STARTCHAR Acircumflex
ENCODING 194
SWIDTH 960 0
DWIDTH 10 0
BBX 10 20 0 -4
BITMAP
0C00
0C00
3300
3300
C000
C000
F000
F000
CC00
CC00
FF00
FF00
C300
C300
C300
C300
0000
0000
0000
0000
ENDCHAR
STARTCHAR Atilde
ENCODING 195
SWIDTH 960 0
DWIDTH 10 0
BBX 10 20 0 -4
BITMAP
3300
3300
CC00
CC00
C000
C000
F000
F000
CC00
CC00
FF00
FF00
C300
C300
C300
C300
0000
0000
0000
0000
ENDCHAR
STARTCHAR Adiaeresis
ENCODING 196
SWIDTH 960 0
DWIDTH 10 0
BBX 10 20 0 -4
BITMAP
3300
3300
0000
0000
C000
C000
F000
F000
CC00
CC00
FF00
FF00
C300
C300
C300
C300
0000
0000
0000
0000
ENDCHAR
STARTCHAR Aring
ENCODING 197
SWIDTH 960 0
DWIDTH 10 0
BBX 10 20 0 -4
BITMAP
0C00
0C00
0000
0000
C000
C000
F000
F000
CC00
CC00
FF00
FF00
C300
C300
C300
C300
0000
0000
0000
0000
ENDCHAR
STARTCHAR AE
ENCODING 198
SWIDTH 960 0
DWIDTH 10 0
BBX 10 20 0 -4
BITMAP
C000
C000
FF00
FF00
CC00
CC00
FF00
FF00
CC00
CC00
CC00
CC00
CC00
CC00
CF00
CF00
0000
0000
0000
0000
ENDCHAR
STARTCHAR Ccedilla
ENCODING 199
SWIDTH 960 0
DWIDTH 10 0
BBX 10 20 0 -4
BITMAP
0300
0300
0C00
0C00
3000
3000
C000
C000
C000
C000
C000
C000
C000
C000
3F00
3F00
0C00
0C00
3000
3000
ENDCHAR
STARTCHAR Egrave
ENCODING 200
SWIDTH 960 0
DWIDTH 10 0
BBX 10 20 0 -4
BITMAP
F000
F000
0000
0000
0300
0300
0C00
0C00
3000
3000
FC00
FC00
C000
C000
FF00
FF00
0000
0000
0000
0000
ENDCHAR
STARTCHAR Eacute
ENCODING 201
SWIDTH 960 0
DWIDTH 10 0
BBX 10 20 0 -4
BITMAP
0F00
0F00
0000
0000
0300
0300
0C00
0C00
3000
3000
FC00
FC00
C000
C000
FF00
FF00
0000
0000
0000
0000
ENDCHAR
STARTCHAR Ecircumflex
ENCODING 202
SWIDTH 960 0
DWIDTH 10 0
BBX 10 20 0 -4
BITMAP
0C00
0C00
3300
3300
0300
0300
0C00
0C00
3000
3000
FC00
FC00
C000
C000
FF00
FF00
0000
0000
0000
0000
ENDCHAR
STARTCHAR Ediaeresis
ENCODING 203
SWIDTH 960 0
DWIDTH 10 0
BBX 10 20 0 -4
BITMAP
3300
3300
0000
0000
0300
0300
0C00
0C00
3000
3000
FC00
FC00
C000
C000
FF00
FF00
0000
0000
0000
0000
ENDCHAR
STARTCHAR Igrave
ENCODING 204
SWIDTH 960 0
DWIDTH 10 0
BBX 10 20 0 -4
BITMAP
F000
F000
0000
0000
FC00
FC00
3000
3000
3000
3000
3000
3000
3000
3000
FC00
FC00
0000
0000
0000
0000
ENDCHAR
STARTCHAR Iacute
ENCODING 205
SWIDTH 960 0
DWIDTH 10 0
BBX 10 20 0 -4
BITMAP
0F00
0F00
0000
0000
FC00
FC00
3000
3000
3000
3000
3000
3000
3000
3000
FC00
FC00
0000
0000
0000
0000
ENDCHAR
STARTCHAR Icircumflex
ENCODING 206
SWIDTH 960 0
DWIDTH 10 0
BBX 10 20 0 -4
BITMAP
3000
3000
CC00
CC00
FC00
FC00
3000
3000
3000
3000
3000
3000
3000
3000
FC00
FC00
0000
0000
0000
0000
ENDCHAR
STARTCHAR Idiaeresis
ENCODING 207
SWIDTH 960 0
DWIDTH 10 0
BBX 10 20 0 -4
BITMAP
CC00
CC00
0000
0000
FC00
FC00
3000
3000
3000
3000
3000
3000
3000
3000
FC00
FC00
0000
0000
0000
0000
ENDCHAR
STARTCHAR ETH
ENCODING 208
SWIDTH 960 0
DWIDTH 10 0
BBX 10 20 0 -4
BITMAP
C000
C000
F000
F000
CC00
CC00
C300
C300
F300
F300
C300
C300
C300
C300
FC00
FC00
0000
0000
0000
0000
ENDCHAR
STARTCHAR Ntilde
ENCODING 209
SWIDTH 960 0
DWIDTH 10 0
BBX 10 20 0 -4
BITMAP
3300
3300
CC00
CC00
C300
C300
F300
F300
CF00
CF00
C300
C300
C300
C300
C300
C300
0000
0000
0000
0000
ENDCHAR
STARTCHAR Ograve
ENCODING 210
SWIDTH 960 0
DWIDTH 10 0
BBX 10 20 0 -4
BITMAP
F000
F000
0000
0000
3C00
3C00
C300
C300
C300
C300
C300
C300
C300
C300
3C00
3C00
0000
0000
0000
0000
ENDCHAR
STARTCHAR Oacute
ENCODING 211
SWIDTH 960 0
DWIDTH 10 0
BBX 10 20 0 -4
BITMAP
0F00
0F00
0000
0000
3C00
3C00
C300
C300
C300
C300
C300
C300
C300
C300
3C00
3C00
0000
0000
0000
0000
ENDCHAR
STARTCHAR Ocircumflex
ENCODING 212
SWIDTH 960 0
DWIDTH 10 0
BBX 10 20 0 -4
BITMAP
0C00
0C00
3300
3300
3C00
3C00
C300
C300
C300
C300
C300
C300
C300
C300
3C00
3C00
0000
0000
0000
0000
ENDCHAR
STARTCHAR Otilde
ENCODING 213
SWIDTH 960 0
DWIDTH 10 0
BBX 10 20 0 -4
BITMAP
3300
3300
CC00
CC00
3C00
3C00
C300
C300
C300
C300
C300
C300
C300
C300
3C00
3C00
0000
0000
0000
0000
ENDCHAR
STARTCHAR Odiaeresis
ENCODING 214
SWIDTH 960 0
DWIDTH 10 0
BBX 10 20 0 -4
BITMAP
3300
3300
0000
0000
3C00
3C00
C300
C300
C300
C300
C300
C300
C300
C300
3C00
3C00
0000
0000
0000
0000
ENDCHAR
STARTCHAR multiply
ENCODING 215
SWIDTH 960 0
DWIDTH 10 0
BBX 10 20 0 -4
BITMAP
0000
0000
0000
0000
CC00
CC00
CC00
CC00
3000
3000
3000
3000
CC00
CC00
CC00
CC00
0000
0000
0000
0000
ENDCHAR
STARTCHAR Ooblique
ENCODING 216
SWIDTH 960 0
DWIDTH 10 0
BBX 10 20 0 -4
BITMAP
0000
0000
3C00
3C00
C300
C300
C300
C300
FF00
FF00
C300
C300
C300
C300
3C00
3C00
0000
0000
0000
0000
ENDCHAR
STARTCHAR Ugrave
ENCODING 217
SWIDTH 960 0
DWIDTH 10 0
BBX 10 20 0 -4
BITMAP
F000
F000
0000
0000
C300
C300
C300
C300
C300
C300
C300
C300
C300
C300
3C00
3C00
0000
0000
0000
0000
ENDCHAR
STARTCHAR Uacute
ENCODING 218
SWIDTH 960 0
DWIDTH 10 0
BBX 10 20 0 -4
BITMAP
0F00
0F00
0000
0000
C300
C300
C300
C300
C300
C300
C300
C300
C300
C300
3C00
3C00
0000
0000
0000
0000
ENDCHAR
STARTCHAR Ucircumflex
ENCODING 219
SWIDTH 960 0
DWIDTH 10 0
BBX 10 20 0 -4
BITMAP
0C00
0C00
3300
3300
C300
C300
C300
C300
C300
C300
C300
C300
C300
C300
3C00
3C00
0000
0000
0000
0000
ENDCHAR
STARTCHAR Udiaeresis
ENCODING 220
SWIDTH 960 0
DWIDTH 10 0
BBX 10 20 0 -4
BITMAP
3300
3300
0000
0000
C300
C300
C300
C300
C300
C300
C300
C300
C300
C300
3C00
3C00
0000
0000
0000
0000
ENDCHAR
STARTCHAR Yacute
ENCODING 221
SWIDTH 960 0
DWIDTH 10 0
BBX 10 20 0 -4
BITMAP
0F00
0F00
0000
0000
C300
C300
C300
C300
3300
3300
0F00
0F00
0300
0300
0300
0300
0000
0000
0000
0000
ENDCHAR
STARTCHAR THORN
ENCODING 222
SWIDTH 960 0
DWIDTH 10 0
BBX 10 20 0 -4
BITMAP
C000
C000
C000
C000
FC00
FC00
C300
C300
C300
C300
FC00
FC00
C000
C000
C000
C000
0000
0000
0000
0000
ENDCHAR
STARTCHAR ssharp
ENCODING 223
SWIDTH 960 0
DWIDTH 10 0
BBX 10 20 0 -4
BITMAP
0000
0000
3C00
3C00
C300
C300
CC00
CC00
C300
C300
C300
C300
CC00
CC00
C000
C000
C000
C000
0000
0000
ENDCHAR
STARTCHAR agrave
ENCODING 224
SWIDTH 960 0
DWIDTH 10 0
BBX 10 20 0 -4
BITMAP
3000
3000
0C00
0C00
0000
0000
3300
3300
CF00
CF00
C300
C300
C300
C300
3F00
3F00
0000
0000
0000
0000
ENDCHAR
STARTCHAR aacute
ENCODING 225
SWIDTH 960 0
DWIDTH 10 0
BBX 10 20 0 -4
BITMAP
0C00
0C00
3000
3000
0000
0000
3300
3300
CF00
CF00
C300
C300
C300
C300
3F00
3F00
0000
0000
0000
0000
ENDCHAR
STARTCHAR acircumflex
ENCODING 226
SWIDTH 960 0
DWIDTH 10 0
BBX 10 20 0 -4
BITMAP
0C00
0C00
3300
3300
0000
0000
3300
3300
CF00
CF00
C300
C300
C300
C300
3F00
3F00
0000
0000
0000
0000
ENDCHAR
STARTCHAR atilde
ENCODING 227
SWIDTH 960 0
DWIDTH 10 0
BBX 10 20 0 -4
BITMAP
3300
3300
CC00
CC00
0000
0000
3300
3300
CF00
CF00
C300
C300
C300
C300
3F00
3F00
0000
0000
0000
0000
ENDCHAR
STARTCHAR adiaeresis
ENCODING 228
SWIDTH 960 0
DWIDTH 10 0
BBX 10 20 0 -4
BITMAP
3300
3300
3300
3300
0000
0000
3300
3300
CF00
CF00
C300
C300
C300
C300
3F00
3F00
0000
0000
0000
0000
ENDCHAR
STARTCHAR aring
ENCODING 229
SWIDTH 960 0
DWIDTH 10 0
BBX 10 20 0 -4
BITMAP
0C00
0C00
3300
3300
0C00
0C00
3300
3300
CF00
CF00
C300
C300
C300
C300
3F00
3F00
0000
0000
0000
0000
ENDCHAR
STARTCHAR ae
ENCODING 230
SWIDTH 960 0
DWIDTH 10 0
BBX 10 20 0 -4
BITMAP
0000
0000
0000
0000
0000
0000
FC00
FC00
3300
3300
FC00
FC00
CC00
CC00
3F00
3F00
0000
0000
0000
0000
ENDCHAR
STARTCHAR ccedilla
ENCODING 231
SWIDTH 960 0
DWIDTH 10 0
BBX 10 20 0 -4
BITMAP
0000
0000
0000
0000
0000
0000
3F00
3F00
C000
C000
C000
C000
C000
C000
3F00
3F00
0C00
0C00
3000
3000
ENDCHAR
STARTCHAR egrave
ENCODING 232
SWIDTH 960 0
DWIDTH 10 0
BBX 10 20 0 -4
BITMAP
3000
3000
0C00
0C00
0000
0000
3C00
3C00
C300
C300
FF00
FF00
C000
C000
3F00
3F00
0000
0000
0000
0000
ENDCHAR
STARTCHAR eacute
ENCODING 233
SWIDTH 960 0
DWIDTH 10 0
BBX 10 20 0 -4
BITMAP
0C00
0C00
3000
3000
0000
0000
3C00
3C00
C300
C300
FF00
FF00
C000
C000
3F00
3F00
0000
0000
0000
0000
ENDCHAR
STARTCHAR ecircumflex
ENCODING 234
SWIDTH 960 0
DWIDTH 10 0
BBX 10 20 0 -4
BITMAP
0C00
0C00
3300
3300
0000
0000
3C00
3C00
C300
C300
FF00
FF00
C000
C000
3F00
3F00
0000
0000
0000
0000
ENDCHAR
STARTCHAR ediaeresis
ENCODING 235
SWIDTH 960 0
DWIDTH 10 0
BBX 10 20 0 -4
BITMAP
3300
3300
3300
3300
0000
0000
3C00
3C00
C300
C300
FF00
FF00
C000
C000
3F00
3F00
0000
0000
0000
0000
ENDCHAR
STARTCHAR igrave
ENCODING 236
SWIDTH 960 0
DWIDTH 10 0
BBX 10 20 0 -4
BITMAP
3000
3000
0C00
0C00
0000
0000
0000
0000
0C00
0C00
0C00
0C00
0C00
0C00
0C00
0C00
0000
0000
0000
0000
ENDCHAR
STARTCHAR iacute
ENCODING 237
SWIDTH 960 0
DWIDTH 10 0
BBX 10 20 0 -4
BITMAP
0C00
0C00
3000
3000
0000
0000
0000
0000
0C00
0C00
0C00
0C00
0C00
0C00
0C00
0C00
0000
0000
0000
0000
ENDCHAR
STARTCHAR icircumflex
ENCODING 238
SWIDTH 960 0
DWIDTH 10 0
BBX 10 20 0 -4
BITMAP
0C00
0C00
3300
3300
0000
0000
0000
0000
0C00
0C00
0C00
0C00
0C00
0C00
0C00
0C00
0000
0000
0000
0000
ENDCHAR
STARTCHAR idiaeresis
ENCODING 239
SWIDTH 960 0
DWIDTH 10 0
BBX 10 20 0 -4
BITMAP
3300
3300
3300
3300
0000
0000
0000
0000
0C00
0C00
0C00
0C00
0C00
0C00
0C00
0C00
0000
0000
0000
0000
ENDCHAR
STARTCHAR eth
ENCODING 240
SWIDTH 960 0
DWIDTH 10 0
BBX 10 20 0 -4
BITMAP
3300
3300
0000
0000
3C00
3C00
0300
0300
3C00
3C00
C300
C300
C300
C300
3C00
3C00
0000
0000
0000
0000
ENDCHAR
STARTCHAR ntilde
ENCODING 241
SWIDTH 960 0
DWIDTH 10 0
BBX 10 20 0 -4
BITMAP
3300
3300
CC00
CC00
0000
0000
FC00
FC00
C300
C300
C300
C300
C300
C300
C300
C300
0000
0000
0000
0000
ENDCHAR
STARTCHAR ograve
ENCODING 242
SWIDTH 960 0
DWIDTH 10 0
BBX 10 20 0 -4
BITMAP
3000
3000
0C00
0C00
0000
0000
3C00
3C00
C300
C300
C300
C300
C300
C300
3C00
3C00
0000
0000
0000
0000
ENDCHAR
STARTCHAR oacute
ENCODING 243
SWIDTH 960 0
DWIDTH 10 0
BBX 10 20 0 -4
BITMAP
0C00
0C00
3000
3000
0000
0000
3C00
3C00
C300
C300
C300
C300
C300
C300
3C00
3C00
0000
0000
0000
0000
ENDCHAR
STARTCHAR ocircumflex
ENCODING 244
SWIDTH 960 0
DWIDTH 10 0
BBX 10 20 0 -4
BITMAP
0C00
0C00
3300
3300
0000
0000
3C00
3C00
C300
C300
C300
C300
C300
C300
3C00
3C00
0000
0000
0000
0000
ENDCHAR
STARTCHAR otilde
ENCODING 245
SWIDTH 960 0
DWIDTH 10 0
BBX 10 20 0 -4
BITMAP
3300
3300
CC00
CC00
0000
0000
3C00
3C00
C300
C300
C300
C300
C300
C300
3C00
3C00
0000
0000
0000
0000
ENDCHAR
STARTCHAR odiaeresis
ENCODING 246
SWIDTH 960 0
DWIDTH 10 0
BBX 10 20 0 -4
BITMAP
3300
3300
3300
3300
0000
0000
3C00
3C00
C300
C300
C300
C300
C300
C300
3C00
3C00
0000
0000
0000
0000
ENDCHAR
STARTCHAR division
ENCODING 247
SWIDTH 960 0
DWIDTH 10 0
BBX 10 20 0 -4
BITMAP
0000
0000
0000
0000
3000
3000
0000
0000
FC00
FC00
0000
0000
3000
3000
0000
0000
0000
0000
0000
0000
ENDCHAR
STARTCHAR oslash
ENCODING 248
SWIDTH 960 0
DWIDTH 10 0
BBX 10 20 0 -4
BITMAP
0000
0000
0000
0000
00C0
00C0
3F00
3F00
CFC0
CFC0
CCC0
CCC0
FCC0
FCC0
3F00
3F00
C000
C000
0000
0000
ENDCHAR
STARTCHAR ugrave
ENCODING 249
SWIDTH 960 0
DWIDTH 10 0
BBX 10 20 0 -4
BITMAP
3000
3000
0C00
0C00
0000
0000
C300
C300
C300
C300
C300
C300
C300
C300
3C00
3C00
0000
0000
0000
0000
ENDCHAR
STARTCHAR uacute
ENCODING 250
SWIDTH 960 0
DWIDTH 10 0
BBX 10 20 0 -4
BITMAP
0C00
0C00
3000
3000
0000
0000
C300
C300
C300
C300
C300
C300
C300
C300
3C00
3C00
0000
0000
0000
0000
ENDCHAR
STARTCHAR ucircumflex
ENCODING 251
SWIDTH 960 0
DWIDTH 10 0
BBX 10 20 0 -4
BITMAP
0C00
0C00
3300
3300
0000
0000
C300
C300
C300
C300
C300
C300
C300
C300
3C00
3C00
0000
0000
0000
0000
ENDCHAR
STARTCHAR udiaeresis
ENCODING 252
SWIDTH 960 0
DWIDTH 10 0
BBX 10 20 0 -4
BITMAP
3300
3300
3300
3300
0000
0000
C300
C300
C300
C300
C300
C300
C300
C300
3C00
3C00
0000
0000
0000
0000
ENDCHAR
STARTCHAR yacute
ENCODING 253
SWIDTH 960 0
DWIDTH 10 0
BBX 10 20 0 -4
BITMAP
0C00
0C00
3000
3000
0000
0000
C300
C300
C300
C300
C300
C300
C300
C300
3F00
3F00
0300
0300
FC00
FC00
ENDCHAR
STARTCHAR thorn
ENCODING 254
SWIDTH 960 0
DWIDTH 10 0
BBX 10 20 0 -4
BITMAP
C000
C000
C000
C000
C000
C000
F000
F000
CC00
CC00
F000
F000
C000
C000
C000
C000
0000
0000
0000
0000
ENDCHAR
STARTCHAR ydiaeresis
ENCODING 255
SWIDTH 960 0
DWIDTH 10 0
BBX 10 20 0 -4
BITMAP
3300
3300
3300
3300
0000
0000
C300
C300
C300
C300
C300
C300
C300
C300
3F00
3F00
0300
0300
FC00
FC00
ENDCHAR
ENDFONT
