STARTFONT 2.1
FONT -spectrum-limeyscaled-medium-r-normal--20-140-100-100-m-100-ISO8859-1
SIZE 22 75 75
FONTBOUNDINGBOX 14 20 0 -4
COMMENT "Generated by fontforge, http://fontforge.sourceforge.net"
COMMENT "This font was automatically resized by bdfresize-1.5"
COMMENT "mag_x = 2/1, mag_y = 2/1, blackness = 4"
STARTPROPERTIES 26
FONTNAME_REGISTRY ""
FOUNDRY "spectrum"
FAMILY_NAME "limeyscaled"
WEIGHT_NAME "medium"
SLANT "r"
SETWIDTH_NAME "normal"
ADD_STYLE_NAME ""
PIXEL_SIZE 20
POINT_SIZE 140
RESOLUTION_X 100
RESOLUTION_Y 100
SPACING "m"
AVERAGE_WIDTH 100
CHARSET_REGISTRY "ISO8859"
CHARSET_ENCODING "1"
COPYRIGHT "artwiz, fixed by aleczapka"
FACE_NAME "limey"
WEIGHT 10
X_HEIGHT 6
QUAD_WIDTH 7
_ORIGINAL_FONT_NAME "lime"
_GBDFED_INFO "Edited with gbdfed 1.6."
CHARSET_COLLECTIONS "ISO8859-2 ISO8859-5 ISO8859-9 ISO8859-4 ISO10646-1"
DEFAULT_CHAR 52
FONT_DESCENT 4
FONT_ASCENT 16
ENDPROPERTIES
CHARS 210
STARTCHAR char32
ENCODING 32
SWIDTH 960 0
DWIDTH 10 0
BBX 0 0 0 0
BITMAP
ENDCHAR
STARTCHAR uni0021
ENCODING 33
SWIDTH 960 0
DWIDTH 10 0
BBX 2 12 4 0
BITMAP
C0
C0
C0
C0
C0
C0
C0
C0
00
00
C0
C0
ENDCHAR
STARTCHAR uni0022
ENCODING 34
SWIDTH 960 0
DWIDTH 10 0
BBX 6 6 2 8
BITMAP
CC
CC
CC
CC
CC
CC
ENDCHAR
STARTCHAR uni0023
ENCODING 35
SWIDTH 960 0
DWIDTH 10 0
BBX 10 10 0 0
BITMAP
3300
3300
F3C0
F3C0
3300
3300
F3C0
F3C0
3300
3300
ENDCHAR
STARTCHAR uni0024
ENCODING 36
SWIDTH 960 0
DWIDTH 10 0
BBX 10 14 0 0
BITMAP
0C00
0C00
3FC0
3FC0
CC00
CC00
3F00
3F00
0CC0
0CC0
FF00
FF00
0C00
0C00
ENDCHAR
STARTCHAR uni0025
ENCODING 37
SWIDTH 960 0
DWIDTH 10 0
BBX 8 12 2 0
BITMAP
C0
C0
C3
C3
0C
0C
30
30
C3
C3
03
03
ENDCHAR
STARTCHAR uni0026
ENCODING 38
SWIDTH 960 0
DWIDTH 10 0
BBX 10 12 0 0
BITMAP
3000
3000
CC00
CC00
3000
3000
CCC0
CCC0
C300
C300
3CC0
3CC0
ENDCHAR
STARTCHAR uni0027
ENCODING 39
SWIDTH 960 0
DWIDTH 10 0
BBX 4 6 2 8
BITMAP
30
30
30
30
C0
C0
ENDCHAR
STARTCHAR uni0028
ENCODING 40
SWIDTH 960 0
DWIDTH 10 0
BBX 4 16 4 -2
BITMAP
30
30
C0
C0
C0
C0
C0
C0
C0
C0
C0
C0
C0
C0
30
30
ENDCHAR
STARTCHAR uni0029
ENCODING 41
SWIDTH 960 0
DWIDTH 10 0
BBX 4 16 4 -2
BITMAP
C0
C0
30
30
30
30
30
30
30
30
30
30
30
30
C0
C0
ENDCHAR
STARTCHAR uni002A
ENCODING 42
SWIDTH 960 0
DWIDTH 10 0
BBX 8 10 2 0
BITMAP
C3
C3
3C
3C
FF
FF
3C
3C
C3
C3
ENDCHAR
STARTCHAR uni002B
ENCODING 43
SWIDTH 960 0
DWIDTH 10 0
BBX 10 10 0 2
BITMAP
0C00
0C00
0C00
0C00
FFC0
FFC0
0C00
0C00
0C00
0C00
ENDCHAR
STARTCHAR uni002C
ENCODING 44
SWIDTH 960 0
DWIDTH 10 0
BBX 4 6 2 -2
BITMAP
30
30
30
30
C0
C0
ENDCHAR
STARTCHAR uni002D
ENCODING 45
SWIDTH 960 0
DWIDTH 10 0
BBX 8 2 2 6
BITMAP
FF
FF
ENDCHAR
STARTCHAR uni002E
ENCODING 46
SWIDTH 960 0
DWIDTH 10 0
BBX 2 4 4 0
BITMAP
C0
C0
C0
C0
ENDCHAR
STARTCHAR uni002F
ENCODING 47
SWIDTH 960 0
DWIDTH 10 0
BBX 8 16 2 -2
BITMAP
03
03
03
03
0C
0C
0C
0C
30
30
30
30
C0
C0
C0
C0
ENDCHAR
STARTCHAR uni0030
ENCODING 48
SWIDTH 960 0
DWIDTH 10 0
BBX 8 12 2 0
BITMAP
3C
3C
C3
C3
CF
CF
F3
F3
C3
C3
3C
3C
ENDCHAR
STARTCHAR uni0031
ENCODING 49
SWIDTH 960 0
DWIDTH 10 0
BBX 4 12 2 0
BITMAP
30
30
F0
F0
30
30
30
30
30
30
30
30
ENDCHAR
STARTCHAR uni0032
ENCODING 50
SWIDTH 960 0
DWIDTH 10 0
BBX 8 12 2 0
BITMAP
FC
FC
03
03
03
03
3C
3C
C0
C0
FF
FF
ENDCHAR
STARTCHAR uni0033
ENCODING 51
SWIDTH 960 0
DWIDTH 10 0
BBX 8 12 2 0
BITMAP
FC
FC
03
03
3C
3C
03
03
03
03
FC
FC
ENDCHAR
STARTCHAR uni0034
ENCODING 52
SWIDTH 960 0
DWIDTH 10 0
BBX 8 12 2 0
BITMAP
C3
C3
C3
C3
C3
C3
3F
3F
03
03
03
03
ENDCHAR
STARTCHAR uni0035
ENCODING 53
SWIDTH 960 0
DWIDTH 10 0
BBX 8 12 2 0
BITMAP
FF
FF
C0
C0
FC
FC
03
03
03
03
FC
FC
ENDCHAR
STARTCHAR uni0036
ENCODING 54
SWIDTH 960 0
DWIDTH 10 0
BBX 8 12 2 0
BITMAP
3C
3C
C0
C0
FC
FC
C3
C3
C3
C3
3C
3C
ENDCHAR
STARTCHAR uni0037
ENCODING 55
SWIDTH 960 0
DWIDTH 10 0
BBX 8 12 2 0
BITMAP
FF
FF
03
03
0C
0C
0C
0C
30
30
30
30
ENDCHAR
STARTCHAR uni0038
ENCODING 56
SWIDTH 960 0
DWIDTH 10 0
BBX 8 12 2 0
BITMAP
3C
3C
C3
C3
3C
3C
C3
C3
C3
C3
3C
3C
ENDCHAR
STARTCHAR uni0039
ENCODING 57
SWIDTH 960 0
DWIDTH 10 0
BBX 8 12 2 0
BITMAP
3C
3C
C3
C3
C3
C3
3F
3F
03
03
3C
3C
ENDCHAR
STARTCHAR uni003A
ENCODING 58
SWIDTH 960 0
DWIDTH 10 0
BBX 2 10 4 0
BITMAP
C0
C0
C0
C0
00
00
C0
C0
C0
C0
ENDCHAR
STARTCHAR uni003B
ENCODING 59
SWIDTH 960 0
DWIDTH 10 0
BBX 4 12 2 -2
BITMAP
30
30
30
30
00
00
30
30
30
30
C0
C0
ENDCHAR
STARTCHAR uni003C
ENCODING 60
SWIDTH 960 0
DWIDTH 10 0
BBX 8 14 2 0
BITMAP
03
03
0C
0C
30
30
C0
C0
30
30
0C
0C
03
03
ENDCHAR
STARTCHAR uni003D
ENCODING 61
SWIDTH 960 0
DWIDTH 10 0
BBX 8 6 2 4
BITMAP
FF
FF
00
00
FF
FF
ENDCHAR
STARTCHAR uni003E
ENCODING 62
SWIDTH 960 0
DWIDTH 10 0
BBX 8 14 2 0
BITMAP
C0
C0
30
30
0C
0C
03
03
0C
0C
30
30
C0
C0
ENDCHAR
STARTCHAR uni003F
ENCODING 63
SWIDTH 960 0
DWIDTH 10 0
BBX 8 12 2 0
BITMAP
FC
FC
03
03
0C
0C
30
30
00
00
30
30
ENDCHAR
STARTCHAR uni0040
ENCODING 64
SWIDTH 960 0
DWIDTH 10 0
BBX 8 12 2 0
BITMAP
3C
3C
C3
C3
CF
CF
CF
CF
C0
C0
3C
3C
ENDCHAR
STARTCHAR uni0041
ENCODING 65
SWIDTH 960 0
DWIDTH 10 0
BBX 8 12 2 0
BITMAP
3C
3C
C3
C3
C3
C3
FF
FF
C3
C3
C3
C3
ENDCHAR
STARTCHAR uni0042
ENCODING 66
SWIDTH 960 0
DWIDTH 10 0
BBX 8 12 2 0
BITMAP
FC
FC
C3
C3
FC
FC
C3
C3
C3
C3
FC
FC
ENDCHAR
STARTCHAR uni0043
ENCODING 67
SWIDTH 960 0
DWIDTH 10 0
BBX 8 12 2 0
BITMAP
3F
3F
C0
C0
C0
C0
C0
C0
C0
C0
3F
3F
ENDCHAR
STARTCHAR uni0044
ENCODING 68
SWIDTH 960 0
DWIDTH 10 0
BBX 8 12 2 0
BITMAP
FC
FC
C3
C3
C3
C3
C3
C3
C3
C3
FC
FC
ENDCHAR
STARTCHAR uni0045
ENCODING 69
SWIDTH 960 0
DWIDTH 10 0
BBX 8 12 2 0
BITMAP
FF
FF
C0
C0
FC
FC
C0
C0
C0
C0
FF
FF
ENDCHAR
STARTCHAR uni0046
ENCODING 70
SWIDTH 960 0
DWIDTH 10 0
BBX 8 12 2 0
BITMAP
FF
FF
C0
C0
FC
FC
C0
C0
C0
C0
C0
C0
ENDCHAR
STARTCHAR uni0047
ENCODING 71
SWIDTH 960 0
DWIDTH 10 0
BBX 8 12 2 0
BITMAP
3C
3C
C0
C0
CF
CF
C3
C3
C3
C3
3C
3C
ENDCHAR
STARTCHAR uni0048
ENCODING 72
SWIDTH 960 0
DWIDTH 10 0
BBX 8 12 2 0
BITMAP
C3
C3
C3
C3
FF
FF
C3
C3
C3
C3
C3
C3
ENDCHAR
STARTCHAR uni0049
ENCODING 73
SWIDTH 960 0
DWIDTH 10 0
BBX 6 12 2 0
BITMAP
FC
FC
30
30
30
30
30
30
30
30
FC
FC
ENDCHAR
STARTCHAR uni004A
ENCODING 74
SWIDTH 960 0
DWIDTH 10 0
BBX 8 12 2 0
BITMAP
3F
3F
03
03
03
03
03
03
C3
C3
3C
3C
ENDCHAR
STARTCHAR uni004B
ENCODING 75
SWIDTH 960 0
DWIDTH 10 0
BBX 8 12 2 0
BITMAP
C3
C3
CC
CC
F0
F0
CC
CC
C3
C3
C3
C3
ENDCHAR
STARTCHAR uni004C
ENCODING 76
SWIDTH 960 0
DWIDTH 10 0
BBX 8 12 2 0
BITMAP
C0
C0
C0
C0
C0
C0
C0
C0
C0
C0
FF
FF
ENDCHAR
STARTCHAR uni004D
ENCODING 77
SWIDTH 960 0
DWIDTH 10 0
BBX 8 12 2 0
BITMAP
C3
C3
FF
FF
CF
CF
C3
C3
C3
C3
C3
C3
ENDCHAR
STARTCHAR uni004E
ENCODING 78
SWIDTH 960 0
DWIDTH 10 0
BBX 8 12 2 0
BITMAP
FC
FC
C3
C3
C3
C3
C3
C3
C3
C3
C3
C3
ENDCHAR
STARTCHAR uni004F
ENCODING 79
SWIDTH 960 0
DWIDTH 10 0
BBX 8 12 2 0
BITMAP
3C
3C
C3
C3
C3
C3
C3
C3
C3
C3
3C
3C
ENDCHAR
STARTCHAR uni0050
ENCODING 80
SWIDTH 960 0
DWIDTH 10 0
BBX 8 12 2 0
BITMAP
FC
FC
C3
C3
C3
C3
FC
FC
C0
C0
C0
C0
ENDCHAR
STARTCHAR uni0051
ENCODING 81
SWIDTH 960 0
DWIDTH 10 0
BBX 8 14 2 -2
BITMAP
3C
3C
C3
C3
C3
C3
C3
C3
C3
C3
3C
3C
0F
0F
ENDCHAR
STARTCHAR uni0052
ENCODING 82
SWIDTH 960 0
DWIDTH 10 0
BBX 8 12 2 0
BITMAP
FC
FC
C3
C3
C3
C3
FC
FC
C3
C3
C3
C3
ENDCHAR
STARTCHAR uni0053
ENCODING 83
SWIDTH 960 0
DWIDTH 10 0
BBX 8 12 2 0
BITMAP
3F
3F
C0
C0
3C
3C
03
03
03
03
FC
FC
ENDCHAR
STARTCHAR uni0054
ENCODING 84
SWIDTH 960 0
DWIDTH 10 0
BBX 10 12 0 0
BITMAP
FFC0
FFC0
0C00
0C00
0C00
0C00
0C00
0C00
0C00
0C00
0C00
0C00
ENDCHAR
STARTCHAR uni0055
ENCODING 85
SWIDTH 960 0
DWIDTH 10 0
BBX 8 12 2 0
BITMAP
C3
C3
C3
C3
C3
C3
C3
C3
C3
C3
3F
3F
ENDCHAR
STARTCHAR uni0056
ENCODING 86
SWIDTH 960 0
DWIDTH 10 0
BBX 8 12 2 0
BITMAP
C3
C3
C3
C3
C3
C3
C3
C3
3C
3C
3C
3C
ENDCHAR
STARTCHAR uni0057
ENCODING 87
SWIDTH 960 0
DWIDTH 10 0
BBX 8 12 2 0
BITMAP
C3
C3
C3
C3
C3
C3
CF
CF
FF
FF
C3
C3
ENDCHAR
STARTCHAR uni0058
ENCODING 88
SWIDTH 960 0
DWIDTH 10 0
BBX 8 12 2 0
BITMAP
C3
C3
C3
C3
3C
3C
C3
C3
C3
C3
C3
C3
ENDCHAR
STARTCHAR uni0059
ENCODING 89
SWIDTH 960 0
DWIDTH 10 0
BBX 10 12 0 0
BITMAP
C0C0
C0C0
3300
3300
0C00
0C00
0C00
0C00
0C00
0C00
0C00
0C00
ENDCHAR
STARTCHAR uni005A
ENCODING 90
SWIDTH 960 0
DWIDTH 10 0
BBX 8 12 2 0
BITMAP
FF
FF
03
03
0C
0C
30
30
C0
C0
FF
FF
ENDCHAR
STARTCHAR uni005B
ENCODING 91
SWIDTH 960 0
DWIDTH 10 0
BBX 6 16 2 -2
BITMAP
FC
FC
C0
C0
C0
C0
C0
C0
C0
C0
C0
C0
C0
C0
FC
FC
ENDCHAR
STARTCHAR uni005C
ENCODING 92
SWIDTH 960 0
DWIDTH 10 0
BBX 8 16 2 -2
BITMAP
C0
C0
C0
C0
30
30
30
30
0C
0C
0C
0C
03
03
03
03
ENDCHAR
STARTCHAR uni005D
ENCODING 93
SWIDTH 960 0
DWIDTH 10 0
BBX 6 16 2 -2
BITMAP
FC
FC
0C
0C
0C
0C
0C
0C
0C
0C
0C
0C
0C
0C
FC
FC
ENDCHAR
STARTCHAR uni005E
ENCODING 94
SWIDTH 960 0
DWIDTH 10 0
BBX 10 6 0 8
BITMAP
0C00
0C00
3300
3300
C0C0
C0C0
ENDCHAR
STARTCHAR uni005F
ENCODING 95
SWIDTH 960 0
DWIDTH 10 0
BBX 8 2 2 -2
BITMAP
FF
FF
ENDCHAR
STARTCHAR uni0060
ENCODING 96
SWIDTH 960 0
DWIDTH 10 0
BBX 4 6 4 8
BITMAP
C0
C0
C0
C0
30
30
ENDCHAR
STARTCHAR uni0061
ENCODING 97
SWIDTH 960 0
DWIDTH 10 0
BBX 8 10 2 0
BITMAP
3F
3F
C3
C3
C3
C3
CF
CF
33
33
ENDCHAR
STARTCHAR uni0062
ENCODING 98
SWIDTH 960 0
DWIDTH 10 0
BBX 8 14 2 0
BITMAP
C0
C0
C0
C0
FC
FC
C3
C3
C3
C3
C3
C3
FC
FC
ENDCHAR
STARTCHAR uni0063
ENCODING 99
SWIDTH 960 0
DWIDTH 10 0
BBX 8 10 2 0
BITMAP
3F
3F
C0
C0
C0
C0
C0
C0
3F
3F
ENDCHAR
STARTCHAR uni0064
ENCODING 100
SWIDTH 960 0
DWIDTH 10 0
BBX 8 14 2 0
BITMAP
03
03
03
03
3F
3F
C3
C3
C3
C3
C3
C3
3F
3F
ENDCHAR
STARTCHAR uni0065
ENCODING 101
SWIDTH 960 0
DWIDTH 10 0
BBX 8 10 2 0
BITMAP
3C
3C
C3
C3
FF
FF
C0
C0
3F
3F
ENDCHAR
STARTCHAR uni0066
ENCODING 102
SWIDTH 960 0
DWIDTH 10 0
BBX 6 14 2 0
BITMAP
0C
0C
30
30
FC
FC
30
30
30
30
30
30
30
30
ENDCHAR
STARTCHAR uni0067
ENCODING 103
SWIDTH 960 0
DWIDTH 10 0
BBX 8 14 2 -4
BITMAP
3F
3F
C3
C3
C3
C3
C3
C3
3F
3F
03
03
3C
3C
ENDCHAR
STARTCHAR uni0068
ENCODING 104
SWIDTH 960 0
DWIDTH 10 0
BBX 8 14 2 0
BITMAP
C0
C0
C0
C0
FC
FC
C3
C3
C3
C3
C3
C3
C3
C3
ENDCHAR
STARTCHAR uni0069
ENCODING 105
SWIDTH 960 0
DWIDTH 10 0
BBX 6 14 4 0
BITMAP
30
30
00
00
F0
F0
30
30
30
30
30
30
3C
3C
ENDCHAR
STARTCHAR uni006A
ENCODING 106
SWIDTH 960 0
DWIDTH 10 0
BBX 6 18 2 -4
BITMAP
0C
0C
00
00
3C
3C
0C
0C
0C
0C
0C
0C
0C
0C
0C
0C
F0
F0
ENDCHAR
STARTCHAR uni006B
ENCODING 107
SWIDTH 960 0
DWIDTH 10 0
BBX 8 14 2 0
BITMAP
C0
C0
C0
C0
C3
C3
CC
CC
F0
F0
CC
CC
C3
C3
ENDCHAR
STARTCHAR uni006C
ENCODING 108
SWIDTH 960 0
DWIDTH 10 0
BBX 6 14 4 0
BITMAP
F0
F0
30
30
30
30
30
30
30
30
30
30
3C
3C
ENDCHAR
STARTCHAR uni006D
ENCODING 109
SWIDTH 960 0
DWIDTH 10 0
BBX 8 10 2 0
BITMAP
C3
C3
FF
FF
CF
CF
C3
C3
C3
C3
ENDCHAR
STARTCHAR uni006E
ENCODING 110
SWIDTH 960 0
DWIDTH 10 0
BBX 8 10 2 0
BITMAP
FC
FC
C3
C3
C3
C3
C3
C3
C3
C3
ENDCHAR
STARTCHAR uni006F
ENCODING 111
SWIDTH 960 0
DWIDTH 10 0
BBX 8 10 2 0
BITMAP
3C
3C
C3
C3
C3
C3
C3
C3
3C
3C
ENDCHAR
STARTCHAR uni0070
ENCODING 112
SWIDTH 960 0
DWIDTH 10 0
BBX 8 14 2 -4
BITMAP
FC
FC
C3
C3
C3
C3
C3
C3
FC
FC
C0
C0
C0
C0
ENDCHAR
STARTCHAR uni0071
ENCODING 113
SWIDTH 960 0
DWIDTH 10 0
BBX 8 14 2 -4
BITMAP
3F
3F
C3
C3
C3
C3
C3
C3
3F
3F
03
03
03
03
ENDCHAR
STARTCHAR uni0072
ENCODING 114
SWIDTH 960 0
DWIDTH 10 0
BBX 8 10 2 0
BITMAP
CF
CF
F0
F0
C0
C0
C0
C0
C0
C0
ENDCHAR
STARTCHAR uni0073
ENCODING 115
SWIDTH 960 0
DWIDTH 10 0
BBX 8 10 2 0
BITMAP
3F
3F
C0
C0
3C
3C
03
03
FC
FC
ENDCHAR
STARTCHAR uni0074
ENCODING 116
SWIDTH 960 0
DWIDTH 10 0
BBX 6 14 2 0
BITMAP
30
30
30
30
FC
FC
30
30
30
30
30
30
3C
3C
ENDCHAR
STARTCHAR uni0075
ENCODING 117
SWIDTH 960 0
DWIDTH 10 0
BBX 8 10 2 0
BITMAP
C3
C3
C3
C3
C3
C3
C3
C3
3F
3F
ENDCHAR
STARTCHAR uni0076
ENCODING 118
SWIDTH 960 0
DWIDTH 10 0
BBX 8 10 2 0
BITMAP
C3
C3
C3
C3
C3
C3
3C
3C
3C
3C
ENDCHAR
STARTCHAR uni0077
ENCODING 119
SWIDTH 960 0
DWIDTH 10 0
BBX 8 10 2 0
BITMAP
C3
C3
C3
C3
CF
CF
FF
FF
C3
C3
ENDCHAR
STARTCHAR uni0078
ENCODING 120
SWIDTH 960 0
DWIDTH 10 0
BBX 8 10 2 0
BITMAP
C3
C3
C3
C3
3C
3C
C3
C3
C3
C3
ENDCHAR
STARTCHAR uni0079
ENCODING 121
SWIDTH 960 0
DWIDTH 10 0
BBX 8 14 2 -4
BITMAP
C3
C3
C3
C3
C3
C3
C3
C3
3F
3F
03
03
3C
3C
ENDCHAR
STARTCHAR uni007A
ENCODING 122
SWIDTH 960 0
DWIDTH 10 0
BBX 8 10 2 0
BITMAP
FF
FF
0C
0C
30
30
C0
C0
FF
FF
ENDCHAR
STARTCHAR uni007B
ENCODING 123
SWIDTH 960 0
DWIDTH 10 0
BBX 6 16 2 -2
BITMAP
0C
0C
30
30
30
30
F0
F0
30
30
30
30
30
30
0C
0C
ENDCHAR
STARTCHAR uni007C
ENCODING 124
SWIDTH 960 0
DWIDTH 10 0
BBX 2 20 4 -4
BITMAP
C0
C0
C0
C0
C0
C0
C0
C0
C0
C0
C0
C0
C0
C0
C0
C0
C0
C0
C0
C0
ENDCHAR
STARTCHAR uni007D
ENCODING 125
SWIDTH 960 0
DWIDTH 10 0
BBX 6 16 4 -2
BITMAP
C0
C0
30
30
30
30
3C
3C
30
30
30
30
30
30
C0
C0
ENDCHAR
STARTCHAR uni007E
ENCODING 126
SWIDTH 960 0
DWIDTH 10 0
BBX 10 6 0 6
BITMAP
3000
3000
CCC0
CCC0
0300
0300
ENDCHAR
STARTCHAR char161
ENCODING 161
SWIDTH 960 0
DWIDTH 10 0
BBX 6 12 2 0
BITMAP
30
30
00
00
F0
F0
30
30
30
30
3C
3C
ENDCHAR
STARTCHAR char162
ENCODING 162
SWIDTH 960 0
DWIDTH 10 0
BBX 8 14 0 -2
BITMAP
03
03
3F
3F
CC
CC
CC
CC
CC
CC
3F
3F
30
30
ENDCHAR
STARTCHAR char163
ENCODING 163
SWIDTH 960 0
DWIDTH 10 0
BBX 10 14 0 0
BITMAP
0F00
0F00
3000
3000
3000
3000
FC00
FC00
3000
3000
30C0
30C0
FF00
FF00
ENDCHAR
STARTCHAR char164
ENCODING 164
SWIDTH 960 0
DWIDTH 10 0
BBX 10 12 0 0
BITMAP
C0C0
C0C0
3F00
3F00
3300
3300
3300
3300
3F00
3F00
C0C0
C0C0
ENDCHAR
STARTCHAR char165
ENCODING 165
SWIDTH 960 0
DWIDTH 10 0
BBX 10 18 0 -2
BITMAP
C0C0
C0C0
C0C0
C0C0
3300
3300
0C00
0C00
FFC0
FFC0
0C00
0C00
FFC0
FFC0
0C00
0C00
0C00
0C00
ENDCHAR
STARTCHAR char166
ENCODING 166
SWIDTH 960 0
DWIDTH 10 0
BBX 4 2 2 2
BITMAP
F0
F0
ENDCHAR
STARTCHAR char167
ENCODING 167
SWIDTH 960 0
DWIDTH 10 0
BBX 10 18 0 -2
BITMAP
0F00
0F00
30C0
30C0
3C00
3C00
C300
C300
C0C0
C0C0
30C0
30C0
0F00
0F00
C300
C300
3C00
3C00
ENDCHAR
STARTCHAR char168
ENCODING 168
SWIDTH 960 0
DWIDTH 10 0
BBX 6 2 2 10
BITMAP
FC
FC
ENDCHAR
STARTCHAR char169
ENCODING 169
SWIDTH 960 0
DWIDTH 10 0
BBX 10 14 0 0
BITMAP
3F00
3F00
C0C0
C0C0
3F00
3F00
3000
3000
3F00
3F00
C0C0
C0C0
3F00
3F00
ENDCHAR
STARTCHAR char170
ENCODING 170
SWIDTH 960 0
DWIDTH 10 0
BBX 8 8 2 8
BITMAP
3F
3F
C3
C3
C3
C3
3F
3F
ENDCHAR
STARTCHAR char171
ENCODING 171
SWIDTH 960 0
DWIDTH 10 0
BBX 8 6 2 4
BITMAP
33
33
CC
CC
33
33
ENDCHAR
STARTCHAR char172
ENCODING 172
SWIDTH 960 0
DWIDTH 10 0
BBX 10 6 0 2
BITMAP
FFC0
FFC0
00C0
00C0
00C0
00C0
ENDCHAR
STARTCHAR char174
ENCODING 174
SWIDTH 960 0
DWIDTH 10 0
BBX 10 14 0 0
BITMAP
3F00
3F00
C0C0
C0C0
3F00
3F00
3C00
3C00
3300
3300
C0C0
C0C0
3F00
3F00
ENDCHAR
STARTCHAR char175
ENCODING 175
SWIDTH 960 0
DWIDTH 10 0
BBX 6 2 2 12
BITMAP
FC
FC
ENDCHAR
STARTCHAR char176
ENCODING 176
SWIDTH 960 0
DWIDTH 10 0
BBX 6 6 0 4
BITMAP
30
30
CC
CC
30
30
ENDCHAR
STARTCHAR char177
ENCODING 177
SWIDTH 960 0
DWIDTH 10 0
BBX 6 10 2 0
BITMAP
30
30
FC
FC
30
30
00
00
FC
FC
ENDCHAR
STARTCHAR char178
ENCODING 178
SWIDTH 960 0
DWIDTH 10 0
BBX 6 8 2 6
BITMAP
F0
F0
0C
0C
30
30
FC
FC
ENDCHAR
STARTCHAR char179
ENCODING 179
SWIDTH 960 0
DWIDTH 10 0
BBX 4 10 2 4
BITMAP
C0
C0
30
30
C0
C0
30
30
C0
C0
ENDCHAR
STARTCHAR char180
ENCODING 180
SWIDTH 960 0
DWIDTH 10 0
BBX 4 4 2 12
BITMAP
30
30
C0
C0
ENDCHAR
STARTCHAR char181
ENCODING 181
SWIDTH 960 0
DWIDTH 10 0
BBX 8 12 0 -2
BITMAP
C3
C3
C3
C3
C3
C3
C3
C3
FC
FC
C0
C0
ENDCHAR
STARTCHAR char182
ENCODING 182
SWIDTH 960 0
DWIDTH 10 0
BBX 10 12 0 0
BITMAP
3FC0
3FC0
CCC0
CCC0
CCC0
CCC0
3CC0
3CC0
0CC0
0CC0
0CC0
0CC0
ENDCHAR
STARTCHAR char183
ENCODING 183
SWIDTH 960 0
DWIDTH 10 0
BBX 2 2 4 6
BITMAP
C0
C0
ENDCHAR
STARTCHAR char184
ENCODING 184
SWIDTH 960 0
DWIDTH 10 0
BBX 6 6 2 2
BITMAP
30
30
0C
0C
FC
FC
ENDCHAR
STARTCHAR char185
ENCODING 185
SWIDTH 960 0
DWIDTH 10 0
BBX 4 8 2 4
BITMAP
30
30
F0
F0
30
30
30
30
ENDCHAR
STARTCHAR char186
ENCODING 186
SWIDTH 960 0
DWIDTH 10 0
BBX 8 8 0 8
BITMAP
3C
3C
C3
C3
C3
C3
3C
3C
ENDCHAR
STARTCHAR char187
ENCODING 187
SWIDTH 960 0
DWIDTH 10 0
BBX 8 6 2 4
BITMAP
CC
CC
33
33
CC
CC
ENDCHAR
STARTCHAR char188
ENCODING 188
SWIDTH 960 0
DWIDTH 10 0
BBX 10 16 2 0
BITMAP
3000
3000
F000
F000
3000
3000
3300
3300
0F00
0F00
3300
3300
3FC0
3FC0
0300
0300
ENDCHAR
STARTCHAR char189
ENCODING 189
SWIDTH 960 0
DWIDTH 10 0
BBX 10 14 2 2
BITMAP
3000
3000
F000
F000
3000
3000
3F00
3F00
00C0
00C0
0300
0300
0FC0
0FC0
ENDCHAR
STARTCHAR char190
ENCODING 190
SWIDTH 960 0
DWIDTH 10 0
BBX 12 16 0 0
BITMAP
F000
F000
0C00
0C00
3000
3000
0CC0
0CC0
F3C0
F3C0
0CC0
0CC0
0FF0
0FF0
00C0
00C0
ENDCHAR
STARTCHAR char191
ENCODING 191
SWIDTH 960 0
DWIDTH 10 0
BBX 8 12 2 0
BITMAP
0C
0C
00
00
0C
0C
30
30
C0
C0
3F
3F
ENDCHAR
STARTCHAR char192
ENCODING 192
SWIDTH 960 0
DWIDTH 10 0
BBX 8 18 2 -2
BITMAP
30
30
0C
0C
00
00
3C
3C
C3
C3
C3
C3
FF
FF
C3
C3
C3
C3
ENDCHAR
STARTCHAR char193
ENCODING 193
SWIDTH 960 0
DWIDTH 10 0
BBX 8 18 2 -2
BITMAP
0C
0C
30
30
00
00
3C
3C
C3
C3
C3
C3
FF
FF
C3
C3
C3
C3
ENDCHAR
STARTCHAR char194
ENCODING 194
SWIDTH 960 0
DWIDTH 10 0
BBX 8 16 2 0
BITMAP
30
30
CC
CC
00
00
3C
3C
C3
C3
C3
C3
FF
FF
C3
C3
ENDCHAR
STARTCHAR char195
ENCODING 195
SWIDTH 960 0
DWIDTH 10 0
BBX 8 16 2 0
BITMAP
33
33
CC
CC
00
00
3C
3C
C3
C3
C3
C3
FF
FF
C3
C3
ENDCHAR
STARTCHAR char196
ENCODING 196
SWIDTH 960 0
DWIDTH 10 0
BBX 8 16 2 0
BITMAP
C3
C3
00
00
3C
3C
C3
C3
C3
C3
FF
FF
C3
C3
C3
C3
ENDCHAR
STARTCHAR char197
ENCODING 197
SWIDTH 960 0
DWIDTH 10 0
BBX 8 16 2 0
BITMAP
3C
3C
C3
C3
3C
3C
C3
C3
C3
C3
FF
FF
C3
C3
C3
C3
ENDCHAR
STARTCHAR char198
ENCODING 198
SWIDTH 960 0
DWIDTH 10 0
BBX 10 12 0 0
BITMAP
3FC0
3FC0
CC00
CC00
CF00
CF00
FC00
FC00
CC00
CC00
CFC0
CFC0
ENDCHAR
STARTCHAR char199
ENCODING 199
SWIDTH 960 0
DWIDTH 10 0
BBX 8 16 0 -4
BITMAP
3C
3C
C3
C3
C0
C0
C0
C0
C0
C0
3F
3F
0C
0C
30
30
ENDCHAR
STARTCHAR char200
ENCODING 200
SWIDTH 960 0
DWIDTH 10 0
BBX 8 16 2 0
BITMAP
30
30
0C
0C
00
00
FF
FF
C0
C0
FC
FC
C0
C0
FF
FF
ENDCHAR
STARTCHAR char201
ENCODING 201
SWIDTH 960 0
DWIDTH 10 0
BBX 8 16 2 0
BITMAP
0C
0C
30
30
00
00
FF
FF
C0
C0
FC
FC
C0
C0
FF
FF
ENDCHAR
STARTCHAR char202
ENCODING 202
SWIDTH 960 0
DWIDTH 10 0
BBX 8 16 2 0
BITMAP
30
30
CC
CC
00
00
FF
FF
C0
C0
FC
FC
C0
C0
FF
FF
ENDCHAR
STARTCHAR char203
ENCODING 203
SWIDTH 960 0
DWIDTH 10 0
BBX 8 14 2 0
BITMAP
CC
CC
00
00
FF
FF
C0
C0
FC
FC
C0
C0
FF
FF
ENDCHAR
STARTCHAR char204
ENCODING 204
SWIDTH 960 0
DWIDTH 10 0
BBX 6 16 2 0
BITMAP
C0
C0
30
30
00
00
FC
FC
30
30
30
30
30
30
FC
FC
ENDCHAR
STARTCHAR char205
ENCODING 205
SWIDTH 960 0
DWIDTH 10 0
BBX 6 16 2 0
BITMAP
0C
0C
30
30
00
00
FC
FC
30
30
30
30
30
30
FC
FC
ENDCHAR
STARTCHAR char206
ENCODING 206
SWIDTH 960 0
DWIDTH 10 0
BBX 6 16 2 0
BITMAP
30
30
CC
CC
00
00
FC
FC
30
30
30
30
30
30
FC
FC
ENDCHAR
STARTCHAR char207
ENCODING 207
SWIDTH 960 0
DWIDTH 10 0
BBX 6 14 2 0
BITMAP
CC
CC
00
00
FC
FC
30
30
30
30
30
30
FC
FC
ENDCHAR
STARTCHAR char208
ENCODING 208
SWIDTH 960 0
DWIDTH 10 0
BBX 10 12 0 0
BITMAP
3F00
3F00
30C0
30C0
FCC0
FCC0
30C0
30C0
30C0
30C0
3F00
3F00
ENDCHAR
STARTCHAR char209
ENCODING 209
SWIDTH 960 0
DWIDTH 10 0
BBX 8 16 2 0
BITMAP
33
33
CC
CC
00
00
FC
FC
C3
C3
C3
C3
C3
C3
C3
C3
ENDCHAR
STARTCHAR char210
ENCODING 210
SWIDTH 960 0
DWIDTH 10 0
BBX 8 16 2 0
BITMAP
C0
C0
30
30
00
00
3C
3C
C3
C3
C3
C3
C3
C3
3C
3C
ENDCHAR
STARTCHAR char211
ENCODING 211
SWIDTH 960 0
DWIDTH 10 0
BBX 8 16 2 0
BITMAP
0C
0C
30
30
00
00
3C
3C
C3
C3
C3
C3
C3
C3
3C
3C
ENDCHAR
STARTCHAR char212
ENCODING 212
SWIDTH 960 0
DWIDTH 10 0
BBX 8 16 2 0
BITMAP
30
30
CC
CC
00
00
3C
3C
C3
C3
C3
C3
C3
C3
3C
3C
ENDCHAR
STARTCHAR char213
ENCODING 213
SWIDTH 960 0
DWIDTH 10 0
BBX 8 16 2 0
BITMAP
33
33
CC
CC
00
00
3C
3C
C3
C3
C3
C3
C3
C3
3C
3C
ENDCHAR
STARTCHAR char214
ENCODING 214
SWIDTH 960 0
DWIDTH 10 0
BBX 8 14 2 0
BITMAP
C3
C3
00
00
3C
3C
C3
C3
C3
C3
C3
C3
3C
3C
ENDCHAR
STARTCHAR char215
ENCODING 215
SWIDTH 960 0
DWIDTH 10 0
BBX 6 6 2 4
BITMAP
CC
CC
30
30
CC
CC
ENDCHAR
STARTCHAR char216
ENCODING 216
SWIDTH 960 0
DWIDTH 10 0
BBX 10 16 0 0
BITMAP
00C0
00C0
3F00
3F00
C3C0
C3C0
CCC0
CCC0
CCC0
CCC0
F0C0
F0C0
3F00
3F00
C000
C000
ENDCHAR
STARTCHAR char217
ENCODING 217
SWIDTH 960 0
DWIDTH 10 0
BBX 8 16 2 0
BITMAP
30
30
0C
0C
C0
C0
C3
C3
C3
C3
C3
C3
C3
C3
3F
3F
ENDCHAR
STARTCHAR char218
ENCODING 218
SWIDTH 960 0
DWIDTH 10 0
BBX 8 16 2 0
BITMAP
0C
0C
30
30
03
03
C3
C3
C3
C3
C3
C3
C3
C3
3F
3F
ENDCHAR
STARTCHAR char219
ENCODING 219
SWIDTH 960 0
DWIDTH 10 0
BBX 8 16 2 0
BITMAP
30
30
CC
CC
00
00
C3
C3
C3
C3
C3
C3
C3
C3
3F
3F
ENDCHAR
STARTCHAR char220
ENCODING 220
SWIDTH 960 0
DWIDTH 10 0
BBX 8 16 2 0
BITMAP
33
33
00
00
00
00
C3
C3
C3
C3
C3
C3
C3
C3
3F
3F
ENDCHAR
STARTCHAR char221
ENCODING 221
SWIDTH 960 0
DWIDTH 10 0
BBX 10 16 0 0
BITMAP
0300
0300
0C00
0C00
C0C0
C0C0
3300
3300
0C00
0C00
0C00
0C00
0C00
0C00
0C00
0C00
ENDCHAR
STARTCHAR char222
ENCODING 222
SWIDTH 960 0
DWIDTH 10 0
BBX 8 18 0 -2
BITMAP
C0
C0
C0
C0
C0
C0
FC
FC
C3
C3
C3
C3
FC
FC
C0
C0
C0
C0
ENDCHAR
STARTCHAR char223
ENCODING 223
SWIDTH 960 0
DWIDTH 10 0
BBX 8 16 0 -2
BITMAP
3C
3C
C3
C3
CC
CC
C3
C3
C3
C3
CC
CC
C0
C0
C0
C0
ENDCHAR
STARTCHAR char224
ENCODING 224
SWIDTH 960 0
DWIDTH 10 0
BBX 8 16 2 0
BITMAP
C0
C0
30
30
00
00
3F
3F
C3
C3
C3
C3
C3
C3
3F
3F
ENDCHAR
STARTCHAR char225
ENCODING 225
SWIDTH 960 0
DWIDTH 10 0
BBX 8 16 2 0
BITMAP
0C
0C
30
30
00
00
3F
3F
C3
C3
C3
C3
C3
C3
3F
3F
ENDCHAR
STARTCHAR char226
ENCODING 226
SWIDTH 960 0
DWIDTH 10 0
BBX 8 16 2 0
BITMAP
30
30
CC
CC
00
00
3F
3F
C3
C3
C3
C3
C3
C3
3F
3F
ENDCHAR
STARTCHAR char227
ENCODING 227
SWIDTH 960 0
DWIDTH 10 0
BBX 8 16 2 0
BITMAP
33
33
CC
CC
00
00
3F
3F
C3
C3
C3
C3
C3
C3
3F
3F
ENDCHAR
STARTCHAR char228
ENCODING 228
SWIDTH 960 0
DWIDTH 10 0
BBX 8 14 2 0
BITMAP
C3
C3
00
00
3F
3F
C3
C3
C3
C3
C3
C3
3F
3F
ENDCHAR
STARTCHAR char229
ENCODING 229
SWIDTH 960 0
DWIDTH 10 0
BBX 8 14 2 0
BITMAP
0C
0C
00
00
3F
3F
C3
C3
C3
C3
C3
C3
3F
3F
ENDCHAR
STARTCHAR char230
ENCODING 230
SWIDTH 960 0
DWIDTH 10 0
BBX 12 10 0 0
BITMAP
3FF0
3FF0
C300
C300
C3C0
C3C0
C300
C300
3FF0
3FF0
ENDCHAR
STARTCHAR char231
ENCODING 231
SWIDTH 960 0
DWIDTH 10 0
BBX 8 14 2 -4
BITMAP
3C
3C
C3
C3
C0
C0
C0
C0
3F
3F
0C
0C
30
30
ENDCHAR
STARTCHAR char232
ENCODING 232
SWIDTH 960 0
DWIDTH 10 0
BBX 8 16 2 0
BITMAP
C0
C0
30
30
00
00
3C
3C
C3
C3
FF
FF
C0
C0
3F
3F
ENDCHAR
STARTCHAR char233
ENCODING 233
SWIDTH 960 0
DWIDTH 10 0
BBX 8 16 2 0
BITMAP
0C
0C
30
30
00
00
3C
3C
C3
C3
FF
FF
C0
C0
3F
3F
ENDCHAR
STARTCHAR char234
ENCODING 234
SWIDTH 960 0
DWIDTH 10 0
BBX 8 16 2 0
BITMAP
30
30
CC
CC
00
00
3C
3C
C3
C3
FF
FF
C0
C0
3F
3F
ENDCHAR
STARTCHAR char235
ENCODING 235
SWIDTH 960 0
DWIDTH 10 0
BBX 8 14 2 0
BITMAP
CC
CC
00
00
3C
3C
C3
C3
FF
FF
C0
C0
3F
3F
ENDCHAR
STARTCHAR char236
ENCODING 236
SWIDTH 960 0
DWIDTH 10 0
BBX 6 16 4 0
BITMAP
C0
C0
30
30
00
00
F0
F0
30
30
30
30
30
30
3C
3C
ENDCHAR
STARTCHAR char237
ENCODING 237
SWIDTH 960 0
DWIDTH 10 0
BBX 6 16 4 0
BITMAP
0C
0C
30
30
00
00
F0
F0
30
30
30
30
30
30
3C
3C
ENDCHAR
STARTCHAR char238
ENCODING 238
SWIDTH 960 0
DWIDTH 10 0
BBX 6 16 4 0
BITMAP
30
30
CC
CC
00
00
F0
F0
30
30
30
30
30
30
3C
3C
ENDCHAR
STARTCHAR char239
ENCODING 239
SWIDTH 960 0
DWIDTH 10 0
BBX 6 14 4 0
BITMAP
CC
CC
00
00
F0
F0
30
30
30
30
30
30
3C
3C
ENDCHAR
STARTCHAR char240
ENCODING 240
SWIDTH 960 0
DWIDTH 10 0
BBX 8 16 0 0
BITMAP
33
33
3C
3C
C3
C3
3F
3F
C3
C3
C3
C3
C3
C3
FF
FF
ENDCHAR
STARTCHAR char241
ENCODING 241
SWIDTH 960 0
DWIDTH 10 0
BBX 8 16 2 0
BITMAP
33
33
CC
CC
00
00
FC
FC
C3
C3
C3
C3
C3
C3
C3
C3
ENDCHAR
STARTCHAR char242
ENCODING 242
SWIDTH 960 0
DWIDTH 10 0
BBX 8 16 2 0
BITMAP
C0
C0
30
30
00
00
3C
3C
C3
C3
C3
C3
C3
C3
3C
3C
ENDCHAR
STARTCHAR char243
ENCODING 243
SWIDTH 960 0
DWIDTH 10 0
BBX 8 16 2 0
BITMAP
03
03
0C
0C
00
00
3C
3C
C3
C3
C3
C3
C3
C3
3C
3C
ENDCHAR
STARTCHAR char244
ENCODING 244
SWIDTH 960 0
DWIDTH 10 0
BBX 8 16 2 0
BITMAP
30
30
CC
CC
00
00
3C
3C
C3
C3
C3
C3
C3
C3
3C
3C
ENDCHAR
STARTCHAR char245
ENCODING 245
SWIDTH 960 0
DWIDTH 10 0
BBX 8 16 2 0
BITMAP
33
33
CC
CC
00
00
3C
3C
C3
C3
C3
C3
C3
C3
3C
3C
ENDCHAR
STARTCHAR char246
ENCODING 246
SWIDTH 960 0
DWIDTH 10 0
BBX 8 14 2 0
BITMAP
C3
C3
00
00
3C
3C
C3
C3
C3
C3
C3
C3
3C
3C
ENDCHAR
STARTCHAR char247
ENCODING 247
SWIDTH 960 0
DWIDTH 10 0
BBX 6 10 0 4
BITMAP
30
30
00
00
FC
FC
00
00
30
30
ENDCHAR
STARTCHAR char248
ENCODING 248
SWIDTH 960 0
DWIDTH 10 0
BBX 10 14 0 -2
BITMAP
00C0
00C0
3F00
3F00
C3C0
C3C0
CCC0
CCC0
F0C0
F0C0
3F00
3F00
C000
C000
ENDCHAR
STARTCHAR char249
ENCODING 249
SWIDTH 960 0
DWIDTH 10 0
BBX 8 16 2 0
BITMAP
C0
C0
30
30
00
00
C3
C3
C3
C3
C3
C3
C3
C3
3F
3F
ENDCHAR
STARTCHAR char250
ENCODING 250
SWIDTH 960 0
DWIDTH 10 0
BBX 8 16 2 0
BITMAP
0C
0C
30
30
00
00
C3
C3
C3
C3
C3
C3
C3
C3
3F
3F
ENDCHAR
STARTCHAR char251
ENCODING 251
SWIDTH 960 0
DWIDTH 10 0
BBX 8 16 2 0
BITMAP
30
30
CC
CC
00
00
C3
C3
C3
C3
C3
C3
C3
C3
3F
3F
ENDCHAR
STARTCHAR char252
ENCODING 252
SWIDTH 960 0
DWIDTH 10 0
BBX 8 14 2 0
BITMAP
CC
CC
00
00
C3
C3
C3
C3
C3
C3
C3
C3
3F
3F
ENDCHAR
STARTCHAR char253
ENCODING 253
SWIDTH 960 0
DWIDTH 10 0
BBX 8 20 2 -4
BITMAP
0C
0C
30
30
00
00
C3
C3
C3
C3
C3
C3
C3
C3
3F
3F
03
03
3C
3C
ENDCHAR
STARTCHAR char254
ENCODING 254
SWIDTH 960 0
DWIDTH 10 0
BBX 8 18 0 -2
BITMAP
C0
C0
C0
C0
FC
FC
C3
C3
C3
C3
C3
C3
FC
FC
C0
C0
C0
C0
ENDCHAR
STARTCHAR char255
ENCODING 255
SWIDTH 960 0
DWIDTH 10 0
BBX 8 18 2 -4
BITMAP
33
33
00
00
C3
C3
C3
C3
C3
C3
C3
C3
3F
3F
03
03
3C
3C
ENDCHAR
STARTCHAR uni037F
ENCODING -1
SWIDTH 960 0
DWIDTH 10 0
BBX 10 6 0 0
BITMAP
FFC0
FFC0
FFC0
FFC0
FFC0
FFC0
ENDCHAR
STARTCHAR uni0380
ENCODING -1
SWIDTH 960 0
DWIDTH 10 0
BBX 10 6 0 0
BITMAP
CCC0
CCC0
3300
3300
CCC0
CCC0
ENDCHAR
STARTCHAR char1984
ENCODING -1
SWIDTH 960 0
DWIDTH 10 0
BBX 12 4 0 -2
BITMAP
FFF0
FFF0
FFF0
FFF0
ENDCHAR
STARTCHAR char1984
ENCODING -1
SWIDTH 960 0
DWIDTH 10 0
BBX 12 4 0 -2
BITMAP
CCC0
CCC0
3330
3330
ENDCHAR
STARTCHAR char11104
ENCODING -1
SWIDTH 960 0
DWIDTH 10 0
BBX 12 16 0 -2
BITMAP
F0C0
F0C0
F3F0
F3F0
F0C0
F0C0
F0C0
F0C0
F300
F300
FC00
FC00
F000
F000
F000
F000
ENDCHAR
STARTCHAR char11105
ENCODING -1
SWIDTH 960 0
DWIDTH 10 0
BBX 12 18 0 -2
BITMAP
C000
C000
C000
C000
C000
C000
FF00
FF00
0000
0000
0C30
0C30
0F30
0F30
0CF0
0CF0
0C30
0C30
ENDCHAR
STARTCHAR char11106
ENCODING -1
SWIDTH 960 0
DWIDTH 10 0
BBX 10 16 2 -2
BITMAP
3FC0
3FC0
C000
C000
C3C0
C3C0
C3C0
C3C0
C000
C000
C3C0
C3C0
C0C0
C0C0
F000
F000
ENDCHAR
STARTCHAR char11107
ENCODING -1
SWIDTH 960 0
DWIDTH 10 0
BBX 12 16 0 -2
BITMAP
FFC0
FFC0
0030
0030
C3C0
C3C0
C300
C300
C300
C300
C300
C300
C300
C300
3C00
3C00
ENDCHAR
STARTCHAR char11108
ENCODING -1
SWIDTH 960 0
DWIDTH 10 0
BBX 12 18 0 -2
BITMAP
0F00
0F00
30C0
30C0
30C0
30C0
30C0
30C0
FFF0
FFF0
F0F0
F0F0
F0F0
F0F0
FFF0
FFF0
3FC0
3FC0
ENDCHAR
STARTCHAR char11136
ENCODING -1
SWIDTH 960 0
DWIDTH 10 0
BBX 10 18 0 -2
BITMAP
C000
C000
F000
F000
FC00
FC00
FF00
FF00
FFC0
FFC0
FF00
FF00
FC00
FC00
F000
F000
C000
C000
ENDCHAR
STARTCHAR char11137
ENCODING -1
SWIDTH 960 0
DWIDTH 10 0
BBX 10 18 0 -2
BITMAP
C000
C000
3000
3000
0C00
0C00
0300
0300
00C0
00C0
0300
0300
0C00
0C00
3000
3000
C000
C000
ENDCHAR
STARTCHAR char11138
ENCODING -1
SWIDTH 960 0
DWIDTH 10 0
BBX 10 18 0 -4
BITMAP
00C0
00C0
03C0
03C0
0FC0
0FC0
3FC0
3FC0
FFC0
FFC0
3FC0
3FC0
0FC0
0FC0
03C0
03C0
00C0
00C0
ENDCHAR
STARTCHAR char11139
ENCODING -1
SWIDTH 960 0
DWIDTH 10 0
BBX 10 18 2 -4
BITMAP
00C0
00C0
0300
0300
0C00
0C00
3000
3000
C000
C000
3000
3000
0C00
0C00
0300
0300
00C0
00C0
ENDCHAR
STARTCHAR char11152
ENCODING -1
SWIDTH 960 0
DWIDTH 10 0
BBX 10 16 2 0
BITMAP
0C00
0C00
FFC0
FFC0
C0C0
C0C0
C0C0
C0C0
C0C0
C0C0
C0C0
C0C0
C0C0
C0C0
FFC0
FFC0
ENDCHAR
STARTCHAR char11153
ENCODING -1
SWIDTH 960 0
DWIDTH 10 0
BBX 10 16 2 0
BITMAP
0C00
0C00
FFC0
FFC0
C0C0
C0C0
C0C0
C0C0
CCC0
CCC0
CCC0
CCC0
C0C0
C0C0
FFC0
FFC0
ENDCHAR
STARTCHAR char11154
ENCODING -1
SWIDTH 960 0
DWIDTH 10 0
BBX 10 16 2 0
BITMAP
0C00
0C00
FFC0
FFC0
C0C0
C0C0
CCC0
CCC0
CCC0
CCC0
CCC0
CCC0
C0C0
C0C0
FFC0
FFC0
ENDCHAR
STARTCHAR char11155
ENCODING -1
SWIDTH 960 0
DWIDTH 10 0
BBX 8 14 2 0
BITMAP
C0
C0
F0
F0
FC
FC
FF
FF
FC
FC
F0
F0
C0
C0
ENDCHAR
STARTCHAR char11156
ENCODING -1
SWIDTH 960 0
DWIDTH 10 0
BBX 10 12 2 0
BITMAP
F3C0
F3C0
F3C0
F3C0
F3C0
F3C0
F3C0
F3C0
F3C0
F3C0
F3C0
F3C0
ENDCHAR
STARTCHAR char11157
ENCODING -1
SWIDTH 960 0
DWIDTH 10 0
BBX 14 16 0 0
BITMAP
0FFC
0FFC
0FFC
0FFC
0C0C
0C0C
0C0C
0C0C
0C0C
0C0C
3C3C
3C3C
FCFC
FCFC
F0F0
F0F0
ENDCHAR
STARTCHAR char11158
ENCODING -1
SWIDTH 960 0
DWIDTH 10 0
BBX 12 12 2 2
BITMAP
3FC0
3FC0
F3F0
F3F0
F3F0
F3F0
F030
F030
FFF0
FFF0
3FC0
3FC0
ENDCHAR
STARTCHAR char11159
ENCODING -1
SWIDTH 960 0
DWIDTH 10 0
BBX 12 14 2 0
BITMAP
0F00
0F00
0F00
0F00
3FC0
3FC0
3FC0
3FC0
F0F0
F0F0
F0F0
F0F0
C030
C030
ENDCHAR
ENDFONT
