STARTFONT 2.1
FONT -cmvnd-antidotescaled-medium-r-normal--22-160-100-100-p-96-ISO8859-1
SIZE 22 75 75
FONTBOUNDINGBOX 14 22 0 -4
COMMENT "Generated by fontforge, http://fontforge.sourceforge.net"
COMMENT "This font was automatically resized by bdfresize-1.5"
COMMENT "mag_x = 2/1, mag_y = 2/1, blackness = 4"
STARTPROPERTIES 25
FONTNAME_REGISTRY ""
FOUNDRY "cmvnd"
FAMILY_NAME "antidotescaled"
WEIGHT_NAME "medium"
SLANT "r"
SETWIDTH_NAME "normal"
ADD_STYLE_NAME ""
PIXEL_SIZE 22
POINT_SIZE 160
RESOLUTION_X 100
RESOLUTION_Y 100
SPACING "p"
AVERAGE_WIDTH 180
CHARSET_REGISTRY "ISO8859"
CHARSET_ENCODING "1"
COPYRIGHT "artwiz, fixed by aleczapka, latin1 chars by Sergio Martins"
WEIGHT 10
RESOLUTION 99
X_HEIGHT 8
QUAD_WIDTH 6
DEFAULT_CHAR 63
FONT_ASCENT 18
FONT_DESCENT 4
_ORIGINAL_FONT_NAME "antidote"
_GBDFED_INFO "Edited with gbdfed 1.6."
ENDPROPERTIES
CHARS 196
STARTCHAR char0
ENCODING 0
SWIDTH 872 0
DWIDTH 10 0
BBX 0 0 0 0
BITMAP
ENDCHAR
STARTCHAR char27
ENCODING 27
SWIDTH 872 0
DWIDTH 10 0
BBX 0 0 0 0
BITMAP
ENDCHAR
STARTCHAR char28
ENCODING 28
SWIDTH 872 0
DWIDTH 10 0
BBX 0 0 0 0
BITMAP
ENDCHAR
STARTCHAR char29
ENCODING 29
SWIDTH 872 0
DWIDTH 10 0
BBX 0 0 0 0
BITMAP
ENDCHAR
STARTCHAR char30
ENCODING 30
SWIDTH 872 0
DWIDTH 10 0
BBX 0 0 0 0
BITMAP
ENDCHAR
STARTCHAR char31
ENCODING 31
SWIDTH 872 0
DWIDTH 10 0
BBX 0 0 0 0
BITMAP
ENDCHAR
STARTCHAR char32
ENCODING 32
SWIDTH 872 0
DWIDTH 10 0
BBX 0 0 0 0
BITMAP
ENDCHAR
STARTCHAR char33
ENCODING 33
SWIDTH 348 0
DWIDTH 4 0
BBX 2 12 2 0
BITMAP
C0
C0
C0
C0
C0
C0
C0
C0
00
00
C0
C0
ENDCHAR
STARTCHAR char34
ENCODING 34
SWIDTH 698 0
DWIDTH 8 0
BBX 6 6 2 6
BITMAP
CC
CC
CC
CC
CC
CC
ENDCHAR
STARTCHAR char35
ENCODING 35
SWIDTH 1046 0
DWIDTH 12 0
BBX 10 10 2 0
BITMAP
3300
3300
F3C0
F3C0
3300
3300
F3C0
F3C0
3300
3300
ENDCHAR
STARTCHAR char36
ENCODING 36
SWIDTH 1046 0
DWIDTH 12 0
BBX 10 14 2 0
BITMAP
0C00
0C00
3FC0
3FC0
CC00
CC00
3F00
3F00
0CC0
0CC0
FF00
FF00
0C00
0C00
ENDCHAR
STARTCHAR char37
ENCODING 37
SWIDTH 872 0
DWIDTH 10 0
BBX 8 12 2 0
BITMAP
F0
F0
F3
F3
0C
0C
30
30
CF
CF
0F
0F
ENDCHAR
STARTCHAR char38
ENCODING 38
SWIDTH 1046 0
DWIDTH 12 0
BBX 10 12 2 0
BITMAP
3000
3000
CC00
CC00
3000
3000
CCC0
CCC0
C300
C300
3CC0
3CC0
ENDCHAR
STARTCHAR char39
ENCODING 39
SWIDTH 522 0
DWIDTH 6 0
BBX 2 6 4 6
BITMAP
C0
C0
C0
C0
C0
C0
ENDCHAR
STARTCHAR char40
ENCODING 40
SWIDTH 698 0
DWIDTH 8 0
BBX 6 16 2 -2
BITMAP
0C
0C
30
30
C0
C0
C0
C0
C0
C0
C0
C0
30
30
0C
0C
ENDCHAR
STARTCHAR char41
ENCODING 41
SWIDTH 698 0
DWIDTH 8 0
BBX 6 16 2 -2
BITMAP
C0
C0
30
30
0C
0C
0C
0C
0C
0C
0C
0C
30
30
C0
C0
ENDCHAR
STARTCHAR char42
ENCODING 42
SWIDTH 872 0
DWIDTH 10 0
BBX 8 10 2 0
BITMAP
C3
C3
3C
3C
FF
FF
3C
3C
C3
C3
ENDCHAR
STARTCHAR char43
ENCODING 43
SWIDTH 872 0
DWIDTH 10 0
BBX 10 10 0 0
BITMAP
0C00
0C00
0C00
0C00
FFC0
FFC0
0C00
0C00
0C00
0C00
ENDCHAR
STARTCHAR char44
ENCODING 44
SWIDTH 522 0
DWIDTH 6 0
BBX 4 6 2 -2
BITMAP
30
30
30
30
C0
C0
ENDCHAR
STARTCHAR char45
ENCODING 45
SWIDTH 872 0
DWIDTH 10 0
BBX 8 2 2 6
BITMAP
FF
FF
ENDCHAR
STARTCHAR char46
ENCODING 46
SWIDTH 348 0
DWIDTH 4 0
BBX 2 4 2 0
BITMAP
C0
C0
C0
C0
ENDCHAR
STARTCHAR char47
ENCODING 47
SWIDTH 872 0
DWIDTH 10 0
BBX 8 16 2 -2
BITMAP
03
03
03
03
0C
0C
0C
0C
30
30
30
30
C0
C0
C0
C0
ENDCHAR
STARTCHAR char48
ENCODING 48
SWIDTH 872 0
DWIDTH 10 0
BBX 8 12 2 0
BITMAP
3C
3C
C3
C3
F3
F3
CF
CF
C3
C3
3C
3C
ENDCHAR
STARTCHAR char49
ENCODING 49
SWIDTH 522 0
DWIDTH 6 0
BBX 4 12 2 0
BITMAP
30
30
F0
F0
30
30
30
30
30
30
30
30
ENDCHAR
STARTCHAR char50
ENCODING 50
SWIDTH 872 0
DWIDTH 10 0
BBX 8 12 2 0
BITMAP
FC
FC
03
03
03
03
3C
3C
C0
C0
FF
FF
ENDCHAR
STARTCHAR char51
ENCODING 51
SWIDTH 872 0
DWIDTH 10 0
BBX 8 12 2 0
BITMAP
FC
FC
03
03
3C
3C
03
03
03
03
FC
FC
ENDCHAR
STARTCHAR char52
ENCODING 52
SWIDTH 872 0
DWIDTH 10 0
BBX 8 12 2 0
BITMAP
C3
C3
C3
C3
C3
C3
3F
3F
03
03
03
03
ENDCHAR
STARTCHAR char53
ENCODING 53
SWIDTH 872 0
DWIDTH 10 0
BBX 8 12 2 0
BITMAP
FF
FF
C0
C0
FC
FC
03
03
03
03
FC
FC
ENDCHAR
STARTCHAR char54
ENCODING 54
SWIDTH 872 0
DWIDTH 10 0
BBX 8 12 2 0
BITMAP
3C
3C
C0
C0
FC
FC
C3
C3
C3
C3
3C
3C
ENDCHAR
STARTCHAR char55
ENCODING 55
SWIDTH 872 0
DWIDTH 10 0
BBX 8 12 2 0
BITMAP
FF
FF
03
03
0C
0C
0C
0C
30
30
30
30
ENDCHAR
STARTCHAR char56
ENCODING 56
SWIDTH 872 0
DWIDTH 10 0
BBX 8 12 2 0
BITMAP
3C
3C
C3
C3
3C
3C
C3
C3
C3
C3
3C
3C
ENDCHAR
STARTCHAR char57
ENCODING 57
SWIDTH 872 0
DWIDTH 10 0
BBX 8 12 2 0
BITMAP
3C
3C
C3
C3
C3
C3
3F
3F
03
03
3C
3C
ENDCHAR
STARTCHAR char58
ENCODING 58
SWIDTH 348 0
DWIDTH 4 0
BBX 2 10 2 0
BITMAP
C0
C0
C0
C0
00
00
C0
C0
C0
C0
ENDCHAR
STARTCHAR char59
ENCODING 59
SWIDTH 348 0
DWIDTH 4 0
BBX 4 12 0 -2
BITMAP
30
30
30
30
00
00
30
30
30
30
C0
C0
ENDCHAR
STARTCHAR char60
ENCODING 60
SWIDTH 698 0
DWIDTH 8 0
BBX 6 10 2 2
BITMAP
0C
0C
30
30
C0
C0
30
30
0C
0C
ENDCHAR
STARTCHAR char61
ENCODING 61
SWIDTH 698 0
DWIDTH 8 0
BBX 6 6 2 4
BITMAP
FC
FC
00
00
FC
FC
ENDCHAR
STARTCHAR char62
ENCODING 62
SWIDTH 872 0
DWIDTH 10 0
BBX 6 10 4 2
BITMAP
C0
C0
30
30
0C
0C
30
30
C0
C0
ENDCHAR
STARTCHAR char63
ENCODING 63
SWIDTH 698 0
DWIDTH 8 0
BBX 6 12 2 0
BITMAP
FC
FC
CC
CC
0C
0C
30
30
00
00
30
30
ENDCHAR
STARTCHAR char64
ENCODING 64
SWIDTH 872 0
DWIDTH 10 0
BBX 8 12 2 0
BITMAP
3C
3C
C3
C3
CF
CF
CF
CF
C0
C0
3C
3C
ENDCHAR
STARTCHAR char65
ENCODING 65
SWIDTH 872 0
DWIDTH 10 0
BBX 8 12 2 0
BITMAP
3C
3C
C3
C3
C3
C3
FF
FF
C3
C3
C3
C3
ENDCHAR
STARTCHAR char66
ENCODING 66
SWIDTH 872 0
DWIDTH 10 0
BBX 8 12 2 0
BITMAP
FC
FC
C3
C3
FC
FC
C3
C3
C3
C3
FC
FC
ENDCHAR
STARTCHAR char67
ENCODING 67
SWIDTH 872 0
DWIDTH 10 0
BBX 8 12 2 0
BITMAP
3F
3F
C0
C0
C0
C0
C0
C0
C0
C0
3F
3F
ENDCHAR
STARTCHAR char68
ENCODING 68
SWIDTH 872 0
DWIDTH 10 0
BBX 8 12 2 0
BITMAP
FC
FC
C3
C3
C3
C3
C3
C3
C3
C3
FC
FC
ENDCHAR
STARTCHAR char69
ENCODING 69
SWIDTH 872 0
DWIDTH 10 0
BBX 8 12 2 0
BITMAP
FF
FF
C0
C0
FC
FC
C0
C0
C0
C0
FF
FF
ENDCHAR
STARTCHAR char70
ENCODING 70
SWIDTH 872 0
DWIDTH 10 0
BBX 8 12 2 0
BITMAP
FF
FF
C0
C0
FC
FC
C0
C0
C0
C0
C0
C0
ENDCHAR
STARTCHAR char71
ENCODING 71
SWIDTH 872 0
DWIDTH 10 0
BBX 8 12 2 0
BITMAP
3F
3F
C0
C0
C0
C0
CF
CF
C3
C3
3F
3F
ENDCHAR
STARTCHAR char72
ENCODING 72
SWIDTH 872 0
DWIDTH 10 0
BBX 8 12 2 0
BITMAP
C3
C3
C3
C3
FF
FF
C3
C3
C3
C3
C3
C3
ENDCHAR
STARTCHAR char73
ENCODING 73
SWIDTH 698 0
DWIDTH 8 0
BBX 6 12 2 0
BITMAP
FC
FC
30
30
30
30
30
30
30
30
FC
FC
ENDCHAR
STARTCHAR char74
ENCODING 74
SWIDTH 872 0
DWIDTH 10 0
BBX 8 12 2 0
BITMAP
3F
3F
03
03
03
03
03
03
C3
C3
3C
3C
ENDCHAR
STARTCHAR char75
ENCODING 75
SWIDTH 872 0
DWIDTH 10 0
BBX 8 12 2 0
BITMAP
C3
C3
CC
CC
F0
F0
CC
CC
C3
C3
C3
C3
ENDCHAR
STARTCHAR char76
ENCODING 76
SWIDTH 872 0
DWIDTH 10 0
BBX 8 12 2 0
BITMAP
C0
C0
C0
C0
C0
C0
C0
C0
C0
C0
FF
FF
ENDCHAR
STARTCHAR char77
ENCODING 77
SWIDTH 1046 0
DWIDTH 12 0
BBX 10 12 2 0
BITMAP
FF00
FF00
CCC0
CCC0
CCC0
CCC0
CCC0
CCC0
CCC0
CCC0
CCC0
CCC0
ENDCHAR
STARTCHAR char78
ENCODING 78
SWIDTH 872 0
DWIDTH 10 0
BBX 8 12 2 0
BITMAP
C3
C3
F3
F3
F3
F3
CF
CF
CF
CF
C3
C3
ENDCHAR
STARTCHAR char79
ENCODING 79
SWIDTH 872 0
DWIDTH 10 0
BBX 8 12 2 0
BITMAP
3C
3C
C3
C3
C3
C3
C3
C3
C3
C3
3C
3C
ENDCHAR
STARTCHAR char80
ENCODING 80
SWIDTH 872 0
DWIDTH 10 0
BBX 8 12 2 0
BITMAP
FC
FC
C3
C3
C3
C3
FC
FC
C0
C0
C0
C0
ENDCHAR
STARTCHAR char81
ENCODING 81
SWIDTH 872 0
DWIDTH 10 0
BBX 8 14 2 -2
BITMAP
3C
3C
C3
C3
C3
C3
C3
C3
C3
C3
3C
3C
0F
0F
ENDCHAR
STARTCHAR char82
ENCODING 82
SWIDTH 872 0
DWIDTH 10 0
BBX 8 12 2 0
BITMAP
FC
FC
C3
C3
C3
C3
FC
FC
C3
C3
C3
C3
ENDCHAR
STARTCHAR char83
ENCODING 83
SWIDTH 872 0
DWIDTH 10 0
BBX 8 12 2 0
BITMAP
3F
3F
C0
C0
3C
3C
03
03
03
03
FC
FC
ENDCHAR
STARTCHAR char84
ENCODING 84
SWIDTH 1046 0
DWIDTH 12 0
BBX 10 12 2 0
BITMAP
FFC0
FFC0
0C00
0C00
0C00
0C00
0C00
0C00
0C00
0C00
0C00
0C00
ENDCHAR
STARTCHAR char85
ENCODING 85
SWIDTH 872 0
DWIDTH 10 0
BBX 8 12 2 0
BITMAP
C3
C3
C3
C3
C3
C3
C3
C3
C3
C3
3F
3F
ENDCHAR
STARTCHAR char86
ENCODING 86
SWIDTH 872 0
DWIDTH 10 0
BBX 8 12 2 0
BITMAP
C3
C3
C3
C3
C3
C3
3C
3C
3C
3C
3C
3C
ENDCHAR
STARTCHAR char87
ENCODING 87
SWIDTH 1046 0
DWIDTH 12 0
BBX 10 12 2 0
BITMAP
C0C0
C0C0
C0C0
C0C0
CCC0
CCC0
CCC0
CCC0
CCC0
CCC0
3FC0
3FC0
ENDCHAR
STARTCHAR char88
ENCODING 88
SWIDTH 872 0
DWIDTH 10 0
BBX 8 12 2 0
BITMAP
C3
C3
C3
C3
3C
3C
C3
C3
C3
C3
C3
C3
ENDCHAR
STARTCHAR char89
ENCODING 89
SWIDTH 872 0
DWIDTH 10 0
BBX 10 12 2 0
BITMAP
C0C0
C0C0
3300
3300
0C00
0C00
0C00
0C00
0C00
0C00
0C00
0C00
ENDCHAR
STARTCHAR char90
ENCODING 90
SWIDTH 872 0
DWIDTH 10 0
BBX 8 12 2 0
BITMAP
FF
FF
03
03
0C
0C
30
30
C0
C0
FF
FF
ENDCHAR
STARTCHAR char91
ENCODING 91
SWIDTH 698 0
DWIDTH 8 0
BBX 6 16 2 -2
BITMAP
FC
FC
C0
C0
C0
C0
C0
C0
C0
C0
C0
C0
C0
C0
FC
FC
ENDCHAR
STARTCHAR char92
ENCODING 92
SWIDTH 872 0
DWIDTH 10 0
BBX 8 16 2 -2
BITMAP
C0
C0
C0
C0
30
30
30
30
0C
0C
0C
0C
03
03
03
03
ENDCHAR
STARTCHAR char93
ENCODING 93
SWIDTH 698 0
DWIDTH 8 0
BBX 6 16 2 -2
BITMAP
FC
FC
0C
0C
0C
0C
0C
0C
0C
0C
0C
0C
0C
0C
FC
FC
ENDCHAR
STARTCHAR char94
ENCODING 94
SWIDTH 872 0
DWIDTH 10 0
BBX 10 6 2 8
BITMAP
0C00
0C00
3300
3300
C0C0
C0C0
ENDCHAR
STARTCHAR char95
ENCODING 95
SWIDTH 872 0
DWIDTH 10 0
BBX 8 2 2 -2
BITMAP
FF
FF
ENDCHAR
STARTCHAR char96
ENCODING 96
SWIDTH 522 0
DWIDTH 6 0
BBX 4 6 2 6
BITMAP
C0
C0
C0
C0
30
30
ENDCHAR
STARTCHAR char97
ENCODING 97
SWIDTH 872 0
DWIDTH 10 0
BBX 8 10 2 0
BITMAP
3F
3F
C3
C3
C3
C3
CF
CF
33
33
ENDCHAR
STARTCHAR char98
ENCODING 98
SWIDTH 872 0
DWIDTH 10 0
BBX 8 14 2 0
BITMAP
C0
C0
C0
C0
FC
FC
C3
C3
C3
C3
C3
C3
FC
FC
ENDCHAR
STARTCHAR char99
ENCODING 99
SWIDTH 872 0
DWIDTH 10 0
BBX 8 10 2 0
BITMAP
3F
3F
C0
C0
C0
C0
C0
C0
3F
3F
ENDCHAR
STARTCHAR char100
ENCODING 100
SWIDTH 872 0
DWIDTH 10 0
BBX 8 14 2 0
BITMAP
03
03
03
03
3F
3F
C3
C3
C3
C3
CF
CF
33
33
ENDCHAR
STARTCHAR char101
ENCODING 101
SWIDTH 872 0
DWIDTH 10 0
BBX 8 10 2 0
BITMAP
3C
3C
C3
C3
FF
FF
C0
C0
3F
3F
ENDCHAR
STARTCHAR char102
ENCODING 102
SWIDTH 872 0
DWIDTH 10 0
BBX 6 14 4 0
BITMAP
3C
3C
C0
C0
FC
FC
C0
C0
C0
C0
C0
C0
C0
C0
ENDCHAR
STARTCHAR char103
ENCODING 103
SWIDTH 872 0
DWIDTH 10 0
BBX 8 14 2 -4
BITMAP
3F
3F
C3
C3
C3
C3
CF
CF
33
33
03
03
3C
3C
ENDCHAR
STARTCHAR char104
ENCODING 104
SWIDTH 872 0
DWIDTH 10 0
BBX 8 14 2 0
BITMAP
C0
C0
C0
C0
FC
FC
C3
C3
C3
C3
C3
C3
C3
C3
ENDCHAR
STARTCHAR char105
ENCODING 105
SWIDTH 348 0
DWIDTH 4 0
BBX 2 14 2 0
BITMAP
C0
C0
00
00
C0
C0
C0
C0
C0
C0
C0
C0
C0
C0
ENDCHAR
STARTCHAR char106
ENCODING 106
SWIDTH 698 0
DWIDTH 8 0
BBX 6 18 2 -4
BITMAP
0C
0C
00
00
3C
3C
0C
0C
0C
0C
0C
0C
0C
0C
0C
0C
F0
F0
ENDCHAR
STARTCHAR char107
ENCODING 107
SWIDTH 872 0
DWIDTH 10 0
BBX 8 14 2 0
BITMAP
C0
C0
C0
C0
C3
C3
CC
CC
FC
FC
C3
C3
C3
C3
ENDCHAR
STARTCHAR char108
ENCODING 108
SWIDTH 348 0
DWIDTH 4 0
BBX 2 14 2 0
BITMAP
C0
C0
C0
C0
C0
C0
C0
C0
C0
C0
C0
C0
C0
C0
ENDCHAR
STARTCHAR char109
ENCODING 109
SWIDTH 1046 0
DWIDTH 12 0
BBX 10 10 2 0
BITMAP
FF00
FF00
CCC0
CCC0
CCC0
CCC0
CCC0
CCC0
CCC0
CCC0
ENDCHAR
STARTCHAR char110
ENCODING 110
SWIDTH 872 0
DWIDTH 10 0
BBX 8 10 2 0
BITMAP
FC
FC
C3
C3
C3
C3
C3
C3
C3
C3
ENDCHAR
STARTCHAR char111
ENCODING 111
SWIDTH 872 0
DWIDTH 10 0
BBX 8 10 2 0
BITMAP
3C
3C
C3
C3
C3
C3
C3
C3
3C
3C
ENDCHAR
STARTCHAR char112
ENCODING 112
SWIDTH 872 0
DWIDTH 10 0
BBX 8 14 2 -4
BITMAP
FC
FC
C3
C3
C3
C3
C3
C3
FC
FC
C0
C0
C0
C0
ENDCHAR
STARTCHAR char113
ENCODING 113
SWIDTH 872 0
DWIDTH 10 0
BBX 8 14 2 -4
BITMAP
3F
3F
C3
C3
C3
C3
C3
C3
3F
3F
03
03
03
03
ENDCHAR
STARTCHAR char114
ENCODING 114
SWIDTH 872 0
DWIDTH 10 0
BBX 8 10 2 0
BITMAP
CF
CF
F0
F0
C0
C0
C0
C0
C0
C0
ENDCHAR
STARTCHAR char115
ENCODING 115
SWIDTH 872 0
DWIDTH 10 0
BBX 8 10 2 0
BITMAP
3F
3F
C0
C0
3C
3C
03
03
FC
FC
ENDCHAR
STARTCHAR char116
ENCODING 116
SWIDTH 698 0
DWIDTH 8 0
BBX 6 12 2 0
BITMAP
30
30
FC
FC
30
30
30
30
30
30
0C
0C
ENDCHAR
STARTCHAR char117
ENCODING 117
SWIDTH 872 0
DWIDTH 10 0
BBX 8 10 2 0
BITMAP
C3
C3
C3
C3
C3
C3
C3
C3
3F
3F
ENDCHAR
STARTCHAR char118
ENCODING 118
SWIDTH 872 0
DWIDTH 10 0
BBX 8 10 2 0
BITMAP
C3
C3
C3
C3
C3
C3
3C
3C
3C
3C
ENDCHAR
STARTCHAR char119
ENCODING 119
SWIDTH 1046 0
DWIDTH 12 0
BBX 10 10 2 0
BITMAP
C0C0
C0C0
CCC0
CCC0
CCC0
CCC0
CCC0
CCC0
3300
3300
ENDCHAR
STARTCHAR char120
ENCODING 120
SWIDTH 872 0
DWIDTH 10 0
BBX 8 10 2 0
BITMAP
C3
C3
C3
C3
3C
3C
C3
C3
C3
C3
ENDCHAR
STARTCHAR char121
ENCODING 121
SWIDTH 872 0
DWIDTH 10 0
BBX 8 14 2 -4
BITMAP
C3
C3
C3
C3
C3
C3
C3
C3
3F
3F
03
03
3C
3C
ENDCHAR
STARTCHAR char122
ENCODING 122
SWIDTH 872 0
DWIDTH 10 0
BBX 8 10 2 0
BITMAP
FF
FF
0C
0C
30
30
C0
C0
FF
FF
ENDCHAR
STARTCHAR char123
ENCODING 123
SWIDTH 698 0
DWIDTH 8 0
BBX 6 16 2 -2
BITMAP
0C
0C
30
30
30
30
F0
F0
F0
F0
30
30
30
30
0C
0C
ENDCHAR
STARTCHAR char124
ENCODING 124
SWIDTH 872 0
DWIDTH 10 0
BBX 2 16 4 -2
BITMAP
C0
C0
C0
C0
C0
C0
C0
C0
C0
C0
C0
C0
C0
C0
C0
C0
ENDCHAR
STARTCHAR char125
ENCODING 125
SWIDTH 698 0
DWIDTH 8 0
BBX 6 16 2 -2
BITMAP
C0
C0
30
30
30
30
3C
3C
3C
3C
30
30
30
30
C0
C0
ENDCHAR
STARTCHAR char126
ENCODING 126
SWIDTH 1046 0
DWIDTH 12 0
BBX 10 8 2 4
BITMAP
3000
3000
CCC0
CCC0
CCC0
CCC0
0300
0300
ENDCHAR
STARTCHAR char33
ENCODING 161
SWIDTH 348 0
DWIDTH 4 0
BBX 2 12 2 0
BITMAP
C0
C0
00
00
C0
C0
C0
C0
C0
C0
C0
C0
ENDCHAR
STARTCHAR char99
ENCODING 162
SWIDTH 1046 0
DWIDTH 12 0
BBX 8 14 2 -2
BITMAP
03
03
3F
3F
CC
CC
CC
CC
CC
CC
3F
3F
30
30
ENDCHAR
STARTCHAR char156
ENCODING 163
SWIDTH 1046 0
DWIDTH 12 0
BBX 10 14 0 0
BITMAP
0F00
0F00
30C0
30C0
3000
3000
FC00
FC00
3000
3000
30C0
30C0
FF00
FF00
ENDCHAR
STARTCHAR char164
ENCODING 164
SWIDTH 1220 0
DWIDTH 14 0
BBX 10 12 2 4
BITMAP
C0C0
C0C0
3F00
3F00
3300
3300
3300
3300
3F00
3F00
C0C0
C0C0
ENDCHAR
STARTCHAR char157
ENCODING 165
SWIDTH 872 0
DWIDTH 10 0
BBX 10 14 0 0
BITMAP
C0C0
C0C0
3300
3300
0C00
0C00
3F00
3F00
0C00
0C00
3F00
3F00
0C00
0C00
ENDCHAR
STARTCHAR char166
ENCODING 166
SWIDTH 522 0
DWIDTH 6 0
BBX 2 14 4 0
BITMAP
C0
C0
C0
C0
C0
C0
00
00
C0
C0
C0
C0
C0
C0
ENDCHAR
STARTCHAR char167
ENCODING 167
SWIDTH 1046 0
DWIDTH 12 0
BBX 8 16 2 -2
BITMAP
0F
0F
30
30
3C
3C
C3
C3
C3
C3
3C
3C
0C
0C
F0
F0
ENDCHAR
STARTCHAR char168
ENCODING 168
SWIDTH 1046 0
DWIDTH 12 0
BBX 8 2 2 14
BITMAP
C3
C3
ENDCHAR
STARTCHAR char169
ENCODING 169
SWIDTH 1046 0
DWIDTH 12 0
BBX 12 14 0 0
BITMAP
3FC0
3FC0
C030
C030
CF30
CF30
CC30
CC30
CF30
CF30
C030
C030
3FC0
3FC0
ENDCHAR
STARTCHAR char166
ENCODING 170
SWIDTH 1046 0
DWIDTH 12 0
BBX 8 8 2 8
BITMAP
3F
3F
C3
C3
C3
C3
3F
3F
ENDCHAR
STARTCHAR char187
ENCODING 171
SWIDTH 872 0
DWIDTH 10 0
BBX 8 6 2 4
BITMAP
33
33
CC
CC
33
33
ENDCHAR
STARTCHAR char172
ENCODING 172
SWIDTH 1046 0
DWIDTH 12 0
BBX 8 4 2 6
BITMAP
FF
FF
03
03
ENDCHAR
STARTCHAR char173
ENCODING 173
SWIDTH 698 0
DWIDTH 8 0
BBX 6 2 2 6
BITMAP
FC
FC
ENDCHAR
STARTCHAR char174
ENCODING 174
SWIDTH 872 0
DWIDTH 10 0
BBX 14 14 0 0
BITMAP
0FC0
0FC0
3030
3030
CFCC
CFCC
CF0C
CF0C
CCCC
CCCC
3030
3030
0FC0
0FC0
ENDCHAR
STARTCHAR char175
ENCODING 175
SWIDTH 1046 0
DWIDTH 12 0
BBX 8 2 2 16
BITMAP
FF
FF
ENDCHAR
STARTCHAR char248
ENCODING 176
SWIDTH 1046 0
DWIDTH 12 0
BBX 8 8 2 6
BITMAP
3C
3C
C3
C3
C3
C3
3C
3C
ENDCHAR
STARTCHAR char241
ENCODING 177
SWIDTH 872 0
DWIDTH 10 0
BBX 6 10 2 2
BITMAP
30
30
FC
FC
30
30
00
00
FC
FC
ENDCHAR
STARTCHAR char253
ENCODING 178
SWIDTH 872 0
DWIDTH 10 0
BBX 6 10 2 8
BITMAP
30
30
CC
CC
30
30
C0
C0
FC
FC
ENDCHAR
STARTCHAR char179
ENCODING 179
SWIDTH 872 0
DWIDTH 10 0
BBX 6 10 2 8
BITMAP
F0
F0
0C
0C
30
30
0C
0C
F0
F0
ENDCHAR
STARTCHAR char180
ENCODING 180
SWIDTH 872 0
DWIDTH 10 0
BBX 4 4 4 12
BITMAP
30
30
C0
C0
ENDCHAR
STARTCHAR char117
ENCODING 181
SWIDTH 1046 0
DWIDTH 12 0
BBX 8 12 2 -2
BITMAP
C3
C3
C3
C3
C3
C3
C3
C3
FC
FC
C0
C0
ENDCHAR
STARTCHAR char113
ENCODING 182
SWIDTH 1046 0
DWIDTH 12 0
BBX 12 14 0 0
BITMAP
3FF0
3FF0
C330
C330
C330
C330
C330
C330
3FF0
3FF0
0330
0330
0330
0330
ENDCHAR
STARTCHAR char183
ENCODING 183
SWIDTH 698 0
DWIDTH 8 0
BBX 4 4 4 4
BITMAP
F0
F0
F0
F0
ENDCHAR
STARTCHAR char184
ENCODING 184
SWIDTH 698 0
DWIDTH 8 0
BBX 6 6 2 2
BITMAP
30
30
0C
0C
FC
FC
ENDCHAR
STARTCHAR char185
ENCODING 185
SWIDTH 872 0
DWIDTH 10 0
BBX 4 10 2 8
BITMAP
30
30
F0
F0
30
30
30
30
30
30
ENDCHAR
STARTCHAR char167
ENCODING 186
SWIDTH 698 0
DWIDTH 8 0
BBX 6 10 2 6
BITMAP
30
30
CC
CC
30
30
00
00
FC
FC
ENDCHAR
STARTCHAR char187
ENCODING 187
SWIDTH 872 0
DWIDTH 10 0
BBX 8 6 2 4
BITMAP
CC
CC
33
33
CC
CC
ENDCHAR
STARTCHAR char172
ENCODING 188
SWIDTH 872 0
DWIDTH 10 0
BBX 10 18 0 0
BITMAP
3000
3000
F000
F000
3000
3000
3000
3000
30C0
30C0
03C0
03C0
0CC0
0CC0
0FC0
0FC0
00C0
00C0
ENDCHAR
STARTCHAR char171
ENCODING 189
SWIDTH 872 0
DWIDTH 10 0
BBX 10 18 0 0
BITMAP
3000
3000
F000
F000
3000
3000
3000
3000
3300
3300
0CC0
0CC0
03C0
03C0
0C00
0C00
0FC0
0FC0
ENDCHAR
STARTCHAR char172
ENCODING 190
SWIDTH 872 0
DWIDTH 10 0
BBX 10 18 0 0
BITMAP
F000
F000
0C00
0C00
3000
3000
0C00
0C00
F0C0
F0C0
03C0
03C0
0CC0
0CC0
0FC0
0FC0
00C0
00C0
ENDCHAR
STARTCHAR char63
ENCODING 191
SWIDTH 872 0
DWIDTH 10 0
BBX 8 12 2 0
BITMAP
0C
0C
00
00
0C
0C
30
30
C0
C0
3F
3F
ENDCHAR
STARTCHAR char196
ENCODING 192
SWIDTH 872 0
DWIDTH 10 0
BBX 8 18 2 0
BITMAP
30
30
0C
0C
00
00
3C
3C
C3
C3
C3
C3
FF
FF
C3
C3
C3
C3
ENDCHAR
STARTCHAR char196
ENCODING 193
SWIDTH 872 0
DWIDTH 10 0
BBX 8 18 2 0
BITMAP
0C
0C
30
30
00
00
3C
3C
C3
C3
C3
C3
FF
FF
C3
C3
C3
C3
ENDCHAR
STARTCHAR char196
ENCODING 194
SWIDTH 872 0
DWIDTH 10 0
BBX 8 18 2 0
BITMAP
3C
3C
C3
C3
00
00
3C
3C
C3
C3
C3
C3
FF
FF
C3
C3
C3
C3
ENDCHAR
STARTCHAR char196
ENCODING 195
SWIDTH 872 0
DWIDTH 10 0
BBX 8 18 2 0
BITMAP
33
33
CC
CC
00
00
3C
3C
C3
C3
C3
C3
FF
FF
C3
C3
C3
C3
ENDCHAR
STARTCHAR char196
ENCODING 196
SWIDTH 872 0
DWIDTH 10 0
BBX 8 16 2 0
BITMAP
C3
C3
00
00
3C
3C
C3
C3
C3
C3
FF
FF
C3
C3
C3
C3
ENDCHAR
STARTCHAR char197
ENCODING 197
SWIDTH 872 0
DWIDTH 10 0
BBX 8 16 2 0
BITMAP
3C
3C
00
00
3C
3C
C3
C3
C3
C3
FF
FF
C3
C3
C3
C3
ENDCHAR
STARTCHAR char197
ENCODING 198
SWIDTH 1046 0
DWIDTH 12 0
BBX 12 12 0 0
BITMAP
3FF0
3FF0
C300
C300
C3C0
C3C0
FF00
FF00
C300
C300
C3F0
C3F0
ENDCHAR
STARTCHAR char67
ENCODING 199
SWIDTH 872 0
DWIDTH 10 0
BBX 8 16 2 -4
BITMAP
3F
3F
C0
C0
C0
C0
C0
C0
C0
C0
3F
3F
0C
0C
30
30
ENDCHAR
STARTCHAR char69
ENCODING 200
SWIDTH 872 0
DWIDTH 10 0
BBX 8 18 2 0
BITMAP
30
30
0C
0C
00
00
FF
FF
C0
C0
FC
FC
C0
C0
C0
C0
FF
FF
ENDCHAR
STARTCHAR char69
ENCODING 201
SWIDTH 872 0
DWIDTH 10 0
BBX 8 18 2 0
BITMAP
0C
0C
30
30
00
00
FF
FF
C0
C0
FC
FC
C0
C0
C0
C0
FF
FF
ENDCHAR
STARTCHAR char69
ENCODING 202
SWIDTH 872 0
DWIDTH 10 0
BBX 8 18 2 0
BITMAP
3C
3C
C3
C3
00
00
FF
FF
C0
C0
FC
FC
C0
C0
C0
C0
FF
FF
ENDCHAR
STARTCHAR char69
ENCODING 203
SWIDTH 872 0
DWIDTH 10 0
BBX 8 16 2 0
BITMAP
33
33
00
00
FF
FF
C0
C0
FC
FC
C0
C0
C0
C0
FF
FF
ENDCHAR
STARTCHAR char73
ENCODING 204
SWIDTH 698 0
DWIDTH 8 0
BBX 6 18 2 0
BITMAP
C0
C0
30
30
00
00
FC
FC
30
30
30
30
30
30
30
30
FC
FC
ENDCHAR
STARTCHAR char73
ENCODING 205
SWIDTH 698 0
DWIDTH 8 0
BBX 6 18 2 0
BITMAP
0C
0C
30
30
00
00
FC
FC
30
30
30
30
30
30
30
30
FC
FC
ENDCHAR
STARTCHAR char73
ENCODING 206
SWIDTH 698 0
DWIDTH 8 0
BBX 6 18 2 0
BITMAP
30
30
CC
CC
00
00
FC
FC
30
30
30
30
30
30
30
30
FC
FC
ENDCHAR
STARTCHAR char73
ENCODING 207
SWIDTH 698 0
DWIDTH 8 0
BBX 6 16 2 0
BITMAP
CC
CC
00
00
FC
FC
30
30
30
30
30
30
30
30
FC
FC
ENDCHAR
STARTCHAR char208
ENCODING 208
SWIDTH 872 0
DWIDTH 10 0
BBX 10 12 0 0
BITMAP
3F00
3F00
30C0
30C0
FCC0
FCC0
30C0
30C0
30C0
30C0
3F00
3F00
ENDCHAR
STARTCHAR char78
ENCODING 209
SWIDTH 872 0
DWIDTH 10 0
BBX 8 18 2 0
BITMAP
33
33
CC
CC
00
00
FC
FC
C3
C3
C3
C3
C3
C3
C3
C3
C3
C3
ENDCHAR
STARTCHAR char214
ENCODING 210
SWIDTH 872 0
DWIDTH 10 0
BBX 8 18 2 0
BITMAP
30
30
0C
0C
00
00
3C
3C
C3
C3
C3
C3
C3
C3
C3
C3
3C
3C
ENDCHAR
STARTCHAR char214
ENCODING 211
SWIDTH 872 0
DWIDTH 10 0
BBX 8 18 2 0
BITMAP
0C
0C
30
30
00
00
3C
3C
C3
C3
C3
C3
C3
C3
C3
C3
3C
3C
ENDCHAR
STARTCHAR char214
ENCODING 212
SWIDTH 872 0
DWIDTH 10 0
BBX 8 18 2 0
BITMAP
3C
3C
C3
C3
00
00
3C
3C
C3
C3
C3
C3
C3
C3
C3
C3
3C
3C
ENDCHAR
STARTCHAR char214
ENCODING 213
SWIDTH 872 0
DWIDTH 10 0
BBX 8 18 2 0
BITMAP
33
33
CC
CC
00
00
3C
3C
C3
C3
C3
C3
C3
C3
C3
C3
3C
3C
ENDCHAR
STARTCHAR char214
ENCODING 214
SWIDTH 872 0
DWIDTH 10 0
BBX 8 16 2 0
BITMAP
C3
C3
00
00
3C
3C
C3
C3
C3
C3
C3
C3
C3
C3
3C
3C
ENDCHAR
STARTCHAR char215
ENCODING 215
SWIDTH 872 0
DWIDTH 10 0
BBX 6 6 2 4
BITMAP
CC
CC
30
30
CC
CC
ENDCHAR
STARTCHAR char216
ENCODING 216
SWIDTH 872 0
DWIDTH 10 0
BBX 12 12 0 0
BITMAP
0F30
0F30
33C0
33C0
33C0
33C0
3CC0
3CC0
3CC0
3CC0
CF00
CF00
ENDCHAR
STARTCHAR char85
ENCODING 217
SWIDTH 872 0
DWIDTH 10 0
BBX 8 18 2 0
BITMAP
30
30
0C
0C
00
00
C3
C3
C3
C3
C3
C3
C3
C3
C3
C3
3F
3F
ENDCHAR
STARTCHAR char85
ENCODING 218
SWIDTH 872 0
DWIDTH 10 0
BBX 8 18 2 0
BITMAP
0C
0C
30
30
00
00
C3
C3
C3
C3
C3
C3
C3
C3
C3
C3
3F
3F
ENDCHAR
STARTCHAR char85
ENCODING 219
SWIDTH 872 0
DWIDTH 10 0
BBX 8 18 2 0
BITMAP
3C
3C
C3
C3
00
00
C3
C3
C3
C3
C3
C3
C3
C3
C3
C3
3F
3F
ENDCHAR
STARTCHAR char85
ENCODING 220
SWIDTH 872 0
DWIDTH 10 0
BBX 8 16 2 0
BITMAP
C3
C3
00
00
C3
C3
C3
C3
C3
C3
C3
C3
C3
C3
3F
3F
ENDCHAR
STARTCHAR char89
ENCODING 221
SWIDTH 872 0
DWIDTH 10 0
BBX 10 18 0 0
BITMAP
0300
0300
0C00
0C00
0000
0000
C0C0
C0C0
3300
3300
0C00
0C00
0C00
0C00
0C00
0C00
0C00
0C00
ENDCHAR
STARTCHAR char112
ENCODING 222
SWIDTH 872 0
DWIDTH 10 0
BBX 8 14 2 -2
BITMAP
C0
C0
C0
C0
FC
FC
C3
C3
C3
C3
FC
FC
C0
C0
ENDCHAR
STARTCHAR char225
ENCODING 223
SWIDTH 872 0
DWIDTH 10 0
BBX 8 14 2 -2
BITMAP
3C
3C
C3
C3
CC
CC
C3
C3
C3
C3
CC
CC
C0
C0
ENDCHAR
STARTCHAR char228
ENCODING 224
SWIDTH 872 0
DWIDTH 10 0
BBX 8 16 2 0
BITMAP
30
30
0C
0C
00
00
3F
3F
C3
C3
C3
C3
CF
CF
33
33
ENDCHAR
STARTCHAR char228
ENCODING 225
SWIDTH 872 0
DWIDTH 10 0
BBX 8 16 2 0
BITMAP
03
03
0C
0C
00
00
3F
3F
C3
C3
C3
C3
CF
CF
33
33
ENDCHAR
STARTCHAR char228
ENCODING 226
SWIDTH 872 0
DWIDTH 10 0
BBX 8 16 2 0
BITMAP
0C
0C
33
33
00
00
3F
3F
C3
C3
C3
C3
CF
CF
33
33
ENDCHAR
STARTCHAR char228
ENCODING 227
SWIDTH 872 0
DWIDTH 10 0
BBX 8 16 2 0
BITMAP
33
33
CC
CC
00
00
3F
3F
C3
C3
C3
C3
CF
CF
33
33
ENDCHAR
STARTCHAR char228
ENCODING 228
SWIDTH 872 0
DWIDTH 10 0
BBX 8 14 2 0
BITMAP
33
33
00
00
3F
3F
C3
C3
C3
C3
CF
CF
33
33
ENDCHAR
STARTCHAR char229
ENCODING 229
SWIDTH 872 0
DWIDTH 10 0
BBX 8 14 2 0
BITMAP
0C
0C
00
00
3F
3F
C3
C3
C3
C3
CF
CF
33
33
ENDCHAR
STARTCHAR char97
ENCODING 230
SWIDTH 1046 0
DWIDTH 12 0
BBX 10 10 2 0
BITMAP
3F00
3F00
CCC0
CCC0
CFC0
CFC0
FC00
FC00
CFC0
CFC0
ENDCHAR
STARTCHAR char99
ENCODING 231
SWIDTH 872 0
DWIDTH 10 0
BBX 8 12 2 -2
BITMAP
3F
3F
C0
C0
C0
C0
C0
C0
3F
3F
0C
0C
ENDCHAR
STARTCHAR char101
ENCODING 232
SWIDTH 872 0
DWIDTH 10 0
BBX 8 16 2 0
BITMAP
30
30
0C
0C
00
00
3C
3C
C3
C3
FF
FF
C0
C0
3F
3F
ENDCHAR
STARTCHAR char101
ENCODING 233
SWIDTH 872 0
DWIDTH 10 0
BBX 8 16 2 0
BITMAP
0C
0C
30
30
00
00
3C
3C
C3
C3
FF
FF
C0
C0
3F
3F
ENDCHAR
STARTCHAR char101
ENCODING 234
SWIDTH 872 0
DWIDTH 10 0
BBX 8 16 2 0
BITMAP
0C
0C
33
33
00
00
3C
3C
C3
C3
FF
FF
C0
C0
3F
3F
ENDCHAR
STARTCHAR char101
ENCODING 235
SWIDTH 872 0
DWIDTH 10 0
BBX 8 14 2 0
BITMAP
33
33
00
00
3C
3C
C3
C3
FF
FF
C0
C0
3F
3F
ENDCHAR
STARTCHAR char105
ENCODING 236
SWIDTH 348 0
DWIDTH 4 0
BBX 4 16 0 0
BITMAP
C0
C0
30
30
00
00
30
30
30
30
30
30
30
30
30
30
ENDCHAR
STARTCHAR char105
ENCODING 237
SWIDTH 522 0
DWIDTH 6 0
BBX 4 16 2 0
BITMAP
30
30
C0
C0
00
00
C0
C0
C0
C0
C0
C0
C0
C0
C0
C0
ENDCHAR
STARTCHAR char105
ENCODING 238
SWIDTH 522 0
DWIDTH 6 0
BBX 6 16 0 0
BITMAP
30
30
CC
CC
00
00
30
30
30
30
30
30
30
30
30
30
ENDCHAR
STARTCHAR char105
ENCODING 239
SWIDTH 522 0
DWIDTH 6 0
BBX 6 14 0 0
BITMAP
CC
CC
00
00
30
30
30
30
30
30
30
30
30
30
ENDCHAR
STARTCHAR char235
ENCODING 240
SWIDTH 872 0
DWIDTH 10 0
BBX 8 16 2 0
BITMAP
CC
CC
3C
3C
C3
C3
3F
3F
C3
C3
C3
C3
C3
C3
3C
3C
ENDCHAR
STARTCHAR char110
ENCODING 241
SWIDTH 872 0
DWIDTH 10 0
BBX 8 16 2 0
BITMAP
33
33
CC
CC
00
00
FC
FC
C3
C3
C3
C3
C3
C3
C3
C3
ENDCHAR
STARTCHAR char246
ENCODING 242
SWIDTH 872 0
DWIDTH 10 0
BBX 8 16 2 0
BITMAP
30
30
0C
0C
00
00
3C
3C
C3
C3
C3
C3
C3
C3
3C
3C
ENDCHAR
STARTCHAR char246
ENCODING 243
SWIDTH 872 0
DWIDTH 10 0
BBX 8 16 2 0
BITMAP
0C
0C
30
30
00
00
3C
3C
C3
C3
C3
C3
C3
C3
3C
3C
ENDCHAR
STARTCHAR char246
ENCODING 244
SWIDTH 872 0
DWIDTH 10 0
BBX 8 16 2 0
BITMAP
3C
3C
C3
C3
00
00
3C
3C
C3
C3
C3
C3
C3
C3
3C
3C
ENDCHAR
STARTCHAR char246
ENCODING 245
SWIDTH 872 0
DWIDTH 10 0
BBX 8 16 2 0
BITMAP
33
33
CC
CC
00
00
3C
3C
C3
C3
C3
C3
C3
C3
3C
3C
ENDCHAR
STARTCHAR char246
ENCODING 246
SWIDTH 872 0
DWIDTH 10 0
BBX 8 14 2 0
BITMAP
C3
C3
00
00
3C
3C
C3
C3
C3
C3
C3
C3
3C
3C
ENDCHAR
STARTCHAR char247
ENCODING 247
SWIDTH 872 0
DWIDTH 10 0
BBX 10 10 0 2
BITMAP
0C00
0C00
0000
0000
FFC0
FFC0
0000
0000
0C00
0C00
ENDCHAR
STARTCHAR char248
ENCODING 248
SWIDTH 872 0
DWIDTH 10 0
BBX 12 10 0 0
BITMAP
0F30
0F30
33C0
33C0
3FC0
3FC0
3CC0
3CC0
CF00
CF00
ENDCHAR
STARTCHAR char117
ENCODING 249
SWIDTH 872 0
DWIDTH 10 0
BBX 8 16 2 0
BITMAP
30
30
0C
0C
00
00
C3
C3
C3
C3
C3
C3
C3
C3
3F
3F
ENDCHAR
STARTCHAR char117
ENCODING 250
SWIDTH 872 0
DWIDTH 10 0
BBX 8 16 2 0
BITMAP
0C
0C
30
30
00
00
C3
C3
C3
C3
C3
C3
C3
C3
3F
3F
ENDCHAR
STARTCHAR char117
ENCODING 251
SWIDTH 872 0
DWIDTH 10 0
BBX 8 16 2 0
BITMAP
3C
3C
C3
C3
00
00
C3
C3
C3
C3
C3
C3
C3
C3
3F
3F
ENDCHAR
STARTCHAR char117
ENCODING 252
SWIDTH 872 0
DWIDTH 10 0
BBX 8 14 2 0
BITMAP
C3
C3
00
00
C3
C3
C3
C3
C3
C3
C3
C3
3F
3F
ENDCHAR
STARTCHAR char121
ENCODING 253
SWIDTH 872 0
DWIDTH 10 0
BBX 8 20 2 -4
BITMAP
0C
0C
30
30
00
00
C3
C3
C3
C3
C3
C3
C3
C3
3F
3F
03
03
3C
3C
ENDCHAR
STARTCHAR char254
ENCODING 254
SWIDTH 872 0
DWIDTH 10 0
BBX 8 18 2 -4
BITMAP
C0
C0
C0
C0
FC
FC
C3
C3
C3
C3
C3
C3
FC
FC
C0
C0
C0
C0
ENDCHAR
STARTCHAR char121
ENCODING 255
SWIDTH 872 0
DWIDTH 10 0
BBX 8 18 2 -4
BITMAP
C3
C3
00
00
C3
C3
C3
C3
C3
C3
C3
C3
3F
3F
03
03
3C
3C
ENDCHAR
ENDFONT
